<?xml version="1.0" encoding="utf-8" standalone="no"?>
<!DOCTYPE svg PUBLIC "-//W3C//DTD SVG 1.1//EN"
  "http://www.w3.org/Graphics/SVG/1.1/DTD/svg11.dtd">
<svg xmlns:xlink="http://www.w3.org/1999/xlink" width="111.65987pt" height="111.65987pt" viewBox="0 0 111.65987 111.65987" xmlns="http://www.w3.org/2000/svg" version="1.1">
 <metadata>
  <rdf:RDF xmlns:dc="http://purl.org/dc/elements/1.1/" xmlns:cc="http://creativecommons.org/ns#" xmlns:rdf="http://www.w3.org/1999/02/22-rdf-syntax-ns#">
   <cc:Work>
    <dc:type rdf:resource="http://purl.org/dc/dcmitype/StillImage"/>
    <dc:date>2023-06-13T15:08:00.968204</dc:date>
    <dc:format>image/svg+xml</dc:format>
    <dc:creator>
     <cc:Agent>
      <dc:title>Matplotlib v3.5.2, https://matplotlib.org/</dc:title>
     </cc:Agent>
    </dc:creator>
   </cc:Work>
  </rdf:RDF>
 </metadata>
 <defs>
  <style type="text/css">*{stroke-linejoin: round; stroke-linecap: butt}</style>
 </defs>
 <g id="figure_1">
  <g id="patch_1">
   <path d="M 0 111.65987 
L 111.65987 111.65987 
L 111.65987 0 
L 0 0 
L 0 111.65987 
z
" style="fill: none"/>
  </g>
  <g id="axes_1">
   <g id="line2d_1">
    <path d="M 12.555 99.10487 
L 55.829935 55.829935 
M 45.011201 55.829935 
L 66.648669 55.829935 
M 55.829935 45.011201 
L 55.829935 66.648669 
M 55.829935 55.829935 
L 99.10487 12.555 
" clip-path="url(#pa78afd408f)" style="fill: none; stroke: #000000; stroke-width: 2; stroke-linecap: round"/>
   </g>
   <g id="patch_2">
    <path d="M 12.555 101.39987 
C 13.163641 101.39987 13.747436 101.158054 14.17781 100.72768 
C 14.608184 100.297306 14.85 99.713511 14.85 99.10487 
C 14.85 98.496229 14.608184 97.912434 14.17781 97.48206 
C 13.747436 97.051686 13.163641 96.80987 12.555 96.80987 
C 11.946359 96.80987 11.362564 97.051686 10.93219 97.48206 
C 10.501816 97.912434 10.26 98.496229 10.26 99.10487 
C 10.26 99.713511 10.501816 100.297306 10.93219 100.72768 
C 11.362564 101.158054 11.946359 101.39987 12.555 101.39987 
z
" clip-path="url(#pa78afd408f)" style="stroke: #000000; stroke-width: 2; stroke-linejoin: miter"/>
   </g>
   <g id="patch_3">
    <path d="M 99.10487 14.85 
C 99.713511 14.85 100.297306 14.608184 100.72768 14.17781 
C 101.158054 13.747436 101.39987 13.163641 101.39987 12.555 
C 101.39987 11.946359 101.158054 11.362564 100.72768 10.93219 
C 100.297306 10.501816 99.713511 10.26 99.10487 10.26 
C 98.496229 10.26 97.912434 10.501816 97.48206 10.93219 
C 97.051686 11.362564 96.80987 11.946359 96.80987 12.555 
C 96.80987 13.163641 97.051686 13.747436 97.48206 14.17781 
C 97.912434 14.608184 98.496229 14.85 99.10487 14.85 
z
" clip-path="url(#pa78afd408f)" style="stroke: #000000; stroke-width: 2; stroke-linejoin: miter"/>
   </g>
  </g>
 </g>
 <defs>
  <clipPath id="pa78afd408f">
   <rect x="7.2" y="7.2" width="97.25987" height="97.25987"/>
  </clipPath>
 </defs>
</svg>
