<?xml version="1.0" encoding="utf-8" standalone="no"?>
<!DOCTYPE svg PUBLIC "-//W3C//DTD SVG 1.1//EN"
  "http://www.w3.org/Graphics/SVG/1.1/DTD/svg11.dtd">
<svg xmlns:xlink="http://www.w3.org/1999/xlink" width="111.65987pt" height="111.65987pt" viewBox="0 0 111.65987 111.65987" xmlns="http://www.w3.org/2000/svg" version="1.1">
 <metadata>
  <rdf:RDF xmlns:dc="http://purl.org/dc/elements/1.1/" xmlns:cc="http://creativecommons.org/ns#" xmlns:rdf="http://www.w3.org/1999/02/22-rdf-syntax-ns#">
   <cc:Work>
    <dc:type rdf:resource="http://purl.org/dc/dcmitype/StillImage"/>
    <dc:date>2023-06-13T15:08:01.078155</dc:date>
    <dc:format>image/svg+xml</dc:format>
    <dc:creator>
     <cc:Agent>
      <dc:title>Matplotlib v3.5.2, https://matplotlib.org/</dc:title>
     </cc:Agent>
    </dc:creator>
   </cc:Work>
  </rdf:RDF>
 </metadata>
 <defs>
  <style type="text/css">*{stroke-linejoin: round; stroke-linecap: butt}</style>
 </defs>
 <g id="figure_1">
  <g id="patch_1">
   <path d="M 0 111.65987 
L 111.65987 111.65987 
L 111.65987 0 
L 0 0 
L 0 111.65987 
z
" style="fill: none"/>
  </g>
  <g id="axes_1">
   <g id="patch_2">
    <path d="M 59.075555 69.894289 
C 58.358504 69.177237 57.384936 68.773972 56.370872 68.773972 
C 55.356808 68.773972 54.38324 69.177237 53.666188 69.894289 
C 52.949137 70.61134 52.545872 71.584908 52.545872 72.598972 
C 52.545872 73.613036 52.949137 74.586604 53.666188 75.303656 
" clip-path="url(#p83d6a47ddb)" style="fill: none; stroke: #000000; stroke-width: 2; stroke-linejoin: miter"/>
   </g>
   <g id="patch_3">
    <path d="M 64.484922 64.484922 
C 63.76787 63.76787 62.794303 63.364605 61.780239 63.364605 
C 60.766175 63.364605 59.792607 63.76787 59.075555 64.484922 
C 58.358504 65.201974 57.955239 66.175541 57.955239 67.189605 
C 57.955239 68.203669 58.358504 69.177237 59.075555 69.894289 
" clip-path="url(#p83d6a47ddb)" style="fill: none; stroke: #000000; stroke-width: 2; stroke-linejoin: miter"/>
   </g>
   <g id="patch_4">
    <path d="M 69.894289 59.075555 
C 69.177237 58.358504 68.203669 57.955239 67.189605 57.955239 
C 66.175541 57.955239 65.201974 58.358504 64.484922 59.075555 
C 63.76787 59.792607 63.364605 60.766175 63.364605 61.780239 
C 63.364605 62.794303 63.76787 63.76787 64.484922 64.484922 
" clip-path="url(#p83d6a47ddb)" style="fill: none; stroke: #000000; stroke-width: 2; stroke-linejoin: miter"/>
   </g>
   <g id="patch_5">
    <path d="M 75.303656 53.666188 
C 74.586604 52.949137 73.613036 52.545872 72.598972 52.545872 
C 71.584908 52.545872 70.61134 52.949137 69.894289 53.666188 
C 69.177237 54.38324 68.773972 55.356808 68.773972 56.370872 
C 68.773972 57.384936 69.177237 58.358504 69.894289 59.075555 
" clip-path="url(#p83d6a47ddb)" style="fill: none; stroke: #000000; stroke-width: 2; stroke-linejoin: miter"/>
   </g>
   <g id="line2d_1">
    <path d="M 12.555 99.10487 
L 34.192468 77.467403 
" clip-path="url(#p83d6a47ddb)" style="fill: none; stroke: #000000; stroke-width: 2; stroke-linecap: round"/>
   </g>
   <g id="line2d_2">
    <path d="M 99.10487 12.555 
L 77.467403 34.192468 
" clip-path="url(#p83d6a47ddb)" style="fill: none; stroke: #000000; stroke-width: 2; stroke-linecap: round"/>
   </g>
   <g id="line2d_3">
    <path d="M 25.537481 68.812416 
L 42.847455 86.12239 
" clip-path="url(#p83d6a47ddb)" style="fill: none; stroke: #000000; stroke-width: 2; stroke-linecap: round"/>
   </g>
   <g id="line2d_4">
    <path d="M 68.812416 25.537481 
L 86.12239 42.847455 
" clip-path="url(#p83d6a47ddb)" style="fill: none; stroke: #000000; stroke-width: 2; stroke-linecap: round"/>
   </g>
   <g id="line2d_5">
    <path d="M 25.537481 68.812416 
L 47.174948 47.174948 
M 36.356214 47.174948 
L 57.993682 47.174948 
M 47.174948 36.356214 
L 47.174948 57.993682 
M 47.174948 47.174948 
L 68.812416 25.537481 
" clip-path="url(#p83d6a47ddb)" style="fill: none; stroke: #000000; stroke-width: 2; stroke-linecap: round"/>
   </g>
   <g id="line2d_6">
    <path d="M 42.847455 86.12239 
L 53.666188 75.303656 
M 75.303656 53.666188 
L 86.12239 42.847455 
" clip-path="url(#p83d6a47ddb)" style="fill: none; stroke: #000000; stroke-width: 2; stroke-linecap: round"/>
   </g>
   <g id="patch_6">
    <path d="M 12.555 101.39987 
C 13.163641 101.39987 13.747436 101.158054 14.17781 100.72768 
C 14.608184 100.297306 14.85 99.713511 14.85 99.10487 
C 14.85 98.496229 14.608184 97.912434 14.17781 97.48206 
C 13.747436 97.051686 13.163641 96.80987 12.555 96.80987 
C 11.946359 96.80987 11.362564 97.051686 10.93219 97.48206 
C 10.501816 97.912434 10.26 98.496229 10.26 99.10487 
C 10.26 99.713511 10.501816 100.297306 10.93219 100.72768 
C 11.362564 101.158054 11.946359 101.39987 12.555 101.39987 
z
" clip-path="url(#p83d6a47ddb)" style="stroke: #000000; stroke-width: 2; stroke-linejoin: miter"/>
   </g>
   <g id="patch_7">
    <path d="M 99.10487 14.85 
C 99.713511 14.85 100.297306 14.608184 100.72768 14.17781 
C 101.158054 13.747436 101.39987 13.163641 101.39987 12.555 
C 101.39987 11.946359 101.158054 11.362564 100.72768 10.93219 
C 100.297306 10.501816 99.713511 10.26 99.10487 10.26 
C 98.496229 10.26 97.912434 10.501816 97.48206 10.93219 
C 97.051686 11.362564 96.80987 11.946359 96.80987 12.555 
C 96.80987 13.163641 97.051686 13.747436 97.48206 14.17781 
C 97.912434 14.608184 98.496229 14.85 99.10487 14.85 
z
" clip-path="url(#p83d6a47ddb)" style="stroke: #000000; stroke-width: 2; stroke-linejoin: miter"/>
   </g>
  </g>
 </g>
 <defs>
  <clipPath id="p83d6a47ddb">
   <rect x="7.2" y="7.2" width="97.25987" height="97.25987"/>
  </clipPath>
 </defs>
</svg>
