<?xml version="1.0" encoding="utf-8" standalone="no"?>
<!DOCTYPE svg PUBLIC "-//W3C//DTD SVG 1.1//EN"
  "http://www.w3.org/Graphics/SVG/1.1/DTD/svg11.dtd">
<svg xmlns:xlink="http://www.w3.org/1999/xlink" width="111.65987pt" height="111.65987pt" viewBox="0 0 111.65987 111.65987" xmlns="http://www.w3.org/2000/svg" version="1.1">
 <metadata>
  <rdf:RDF xmlns:dc="http://purl.org/dc/elements/1.1/" xmlns:cc="http://creativecommons.org/ns#" xmlns:rdf="http://www.w3.org/1999/02/22-rdf-syntax-ns#">
   <cc:Work>
    <dc:type rdf:resource="http://purl.org/dc/dcmitype/StillImage"/>
    <dc:date>2023-06-13T15:08:01.104262</dc:date>
    <dc:format>image/svg+xml</dc:format>
    <dc:creator>
     <cc:Agent>
      <dc:title>Matplotlib v3.5.2, https://matplotlib.org/</dc:title>
     </cc:Agent>
    </dc:creator>
   </cc:Work>
  </rdf:RDF>
 </metadata>
 <defs>
  <style type="text/css">*{stroke-linejoin: round; stroke-linecap: butt}</style>
 </defs>
 <g id="figure_1">
  <g id="patch_1">
   <path d="M 0 111.65987 
L 111.65987 111.65987 
L 111.65987 0 
L 0 0 
L 0 111.65987 
z
" style="fill: none"/>
  </g>
  <g id="axes_1">
   <g id="patch_2">
    <path d="M 61.960551 72.779285 
C 61.243499 72.062233 60.269931 71.658968 59.255867 71.658968 
C 58.241803 71.658968 57.268235 72.062233 56.551184 72.779285 
C 55.834132 73.496336 55.430867 74.469904 55.430867 75.483968 
C 55.430867 76.498032 55.834132 77.4716 56.551184 78.188651 
" clip-path="url(#pa3b5293913)" style="fill: none; stroke: #000000; stroke-width: 2; stroke-linejoin: miter"/>
   </g>
   <g id="patch_3">
    <path d="M 67.369918 67.369918 
C 66.652866 66.652866 65.679298 66.249601 64.665234 66.249601 
C 63.65117 66.249601 62.677602 66.652866 61.960551 67.369918 
C 61.243499 68.086969 60.840234 69.060537 60.840234 70.074601 
C 60.840234 71.088665 61.243499 72.062233 61.960551 72.779285 
" clip-path="url(#pa3b5293913)" style="fill: none; stroke: #000000; stroke-width: 2; stroke-linejoin: miter"/>
   </g>
   <g id="patch_4">
    <path d="M 72.779285 61.960551 
C 72.062233 61.243499 71.088665 60.840234 70.074601 60.840234 
C 69.060537 60.840234 68.086969 61.243499 67.369918 61.960551 
C 66.652866 62.677602 66.249601 63.65117 66.249601 64.665234 
C 66.249601 65.679298 66.652866 66.652866 67.369918 67.369918 
" clip-path="url(#pa3b5293913)" style="fill: none; stroke: #000000; stroke-width: 2; stroke-linejoin: miter"/>
   </g>
   <g id="patch_5">
    <path d="M 78.188651 56.551184 
C 77.4716 55.834132 76.498032 55.430867 75.483968 55.430867 
C 74.469904 55.430867 73.496336 55.834132 72.779285 56.551184 
C 72.062233 57.268235 71.658968 58.241803 71.658968 59.255867 
C 71.658968 60.269931 72.062233 61.243499 72.779285 61.960551 
" clip-path="url(#pa3b5293913)" style="fill: none; stroke: #000000; stroke-width: 2; stroke-linejoin: miter"/>
   </g>
   <g id="line2d_1">
    <path d="M 12.555 99.10487 
L 34.192468 77.467403 
" clip-path="url(#pa3b5293913)" style="fill: none; stroke: #000000; stroke-width: 2; stroke-linecap: round"/>
   </g>
   <g id="line2d_2">
    <path d="M 99.10487 12.555 
L 77.467403 34.192468 
" clip-path="url(#pa3b5293913)" style="fill: none; stroke: #000000; stroke-width: 2; stroke-linecap: round"/>
   </g>
   <g id="line2d_3">
    <path d="M 22.652485 65.92742 
L 45.73245 89.007385 
" clip-path="url(#pa3b5293913)" style="fill: none; stroke: #000000; stroke-width: 2; stroke-linecap: round"/>
   </g>
   <g id="line2d_4">
    <path d="M 65.92742 22.652485 
L 89.007385 45.73245 
" clip-path="url(#pa3b5293913)" style="fill: none; stroke: #000000; stroke-width: 2; stroke-linecap: round"/>
   </g>
   <g id="line2d_5">
    <path d="M 34.192468 77.467403 
L 53.882563 57.777307 
M 48.473196 52.36794 
L 59.29193 63.186674 
M 52.36794 48.473196 
L 63.186674 59.29193 
M 57.777307 53.882563 
L 77.467403 34.192468 
" clip-path="url(#pa3b5293913)" style="fill: none; stroke: #000000; stroke-width: 2; stroke-linecap: round"/>
   </g>
   <g id="line2d_6">
    <path d="M 22.652485 65.92742 
L 44.289952 44.289952 
M 33.471219 44.289952 
L 55.108686 44.289952 
M 44.289952 33.471219 
L 44.289952 55.108686 
M 44.289952 44.289952 
L 65.92742 22.652485 
" clip-path="url(#pa3b5293913)" style="fill: none; stroke: #000000; stroke-width: 2; stroke-linecap: round"/>
   </g>
   <g id="line2d_7">
    <path d="M 45.73245 89.007385 
L 56.551184 78.188651 
M 78.188651 56.551184 
L 89.007385 45.73245 
" clip-path="url(#pa3b5293913)" style="fill: none; stroke: #000000; stroke-width: 2; stroke-linecap: round"/>
   </g>
   <g id="patch_6">
    <path d="M 12.555 101.39987 
C 13.163641 101.39987 13.747436 101.158054 14.17781 100.72768 
C 14.608184 100.297306 14.85 99.713511 14.85 99.10487 
C 14.85 98.496229 14.608184 97.912434 14.17781 97.48206 
C 13.747436 97.051686 13.163641 96.80987 12.555 96.80987 
C 11.946359 96.80987 11.362564 97.051686 10.93219 97.48206 
C 10.501816 97.912434 10.26 98.496229 10.26 99.10487 
C 10.26 99.713511 10.501816 100.297306 10.93219 100.72768 
C 11.362564 101.158054 11.946359 101.39987 12.555 101.39987 
z
" clip-path="url(#pa3b5293913)" style="stroke: #000000; stroke-width: 2; stroke-linejoin: miter"/>
   </g>
   <g id="patch_7">
    <path d="M 99.10487 14.85 
C 99.713511 14.85 100.297306 14.608184 100.72768 14.17781 
C 101.158054 13.747436 101.39987 13.163641 101.39987 12.555 
C 101.39987 11.946359 101.158054 11.362564 100.72768 10.93219 
C 100.297306 10.501816 99.713511 10.26 99.10487 10.26 
C 98.496229 10.26 97.912434 10.501816 97.48206 10.93219 
C 97.051686 11.362564 96.80987 11.946359 96.80987 12.555 
C 96.80987 13.163641 97.051686 13.747436 97.48206 14.17781 
C 97.912434 14.608184 98.496229 14.85 99.10487 14.85 
z
" clip-path="url(#pa3b5293913)" style="stroke: #000000; stroke-width: 2; stroke-linejoin: miter"/>
   </g>
  </g>
 </g>
 <defs>
  <clipPath id="pa3b5293913">
   <rect x="7.2" y="7.2" width="97.25987" height="97.25987"/>
  </clipPath>
 </defs>
</svg>
