<?xml version="1.0" encoding="utf-8" standalone="no"?>
<!DOCTYPE svg PUBLIC "-//W3C//DTD SVG 1.1//EN"
  "http://www.w3.org/Graphics/SVG/1.1/DTD/svg11.dtd">
<svg xmlns:xlink="http://www.w3.org/1999/xlink" width="269.91pt" height="84.78pt" viewBox="0 0 269.91 84.78" xmlns="http://www.w3.org/2000/svg" version="1.1">
 <metadata>
  <rdf:RDF xmlns:dc="http://purl.org/dc/elements/1.1/" xmlns:cc="http://creativecommons.org/ns#" xmlns:rdf="http://www.w3.org/1999/02/22-rdf-syntax-ns#">
   <cc:Work>
    <dc:type rdf:resource="http://purl.org/dc/dcmitype/StillImage"/>
    <dc:date>2023-07-20T12:50:47.934882</dc:date>
    <dc:format>image/svg+xml</dc:format>
    <dc:creator>
     <cc:Agent>
      <dc:title>Matplotlib v3.5.2, https://matplotlib.org/</dc:title>
     </cc:Agent>
    </dc:creator>
   </cc:Work>
  </rdf:RDF>
 </metadata>
 <defs>
  <style type="text/css">*{stroke-linejoin: round; stroke-linecap: butt}</style>
 </defs>
 <g id="figure_1">
  <g id="patch_1">
   <path d="M 0 84.78 
L 269.91 84.78 
L 269.91 0 
L 0 0 
L 0 84.78 
z
" style="fill: none"/>
  </g>
  <g id="axes_1">
   <g id="line2d_1">
    <path d="M 12.555 42.39 
L 73.755 42.39 
" clip-path="url(#pb586cd668a)" style="fill: none; stroke: #000000; stroke-width: 2; stroke-linecap: round"/>
   </g>
   <g id="line2d_2">
    <path d="M 257.355 42.39 
L 196.155 42.39 
" clip-path="url(#pb586cd668a)" style="fill: none; stroke: #000000; stroke-width: 2; stroke-linecap: round"/>
   </g>
   <g id="line2d_3">
    <path d="M 73.755 17.91 
L 73.755 66.87 
" clip-path="url(#pb586cd668a)" style="fill: none; stroke: #000000; stroke-width: 2; stroke-linecap: round"/>
   </g>
   <g id="line2d_4">
    <path d="M 196.155 17.91 
L 196.155 66.87 
" clip-path="url(#pb586cd668a)" style="fill: none; stroke: #000000; stroke-width: 2; stroke-linecap: round"/>
   </g>
   <g id="line2d_5">
    <path d="M 73.755 17.91 
L 132.201 17.91 
M 132.201 10.26 
L 132.201 25.56 
M 137.709 10.26 
L 137.709 25.56 
M 137.709 17.91 
L 196.155 17.91 
" clip-path="url(#pb586cd668a)" style="fill: none; stroke: #000000; stroke-width: 2; stroke-linecap: round"/>
   </g>
   <g id="line2d_6">
    <path d="M 73.755 66.87 
L 134.955 66.87 
M 127.305 59.22 
L 142.605 74.52 
M 142.605 59.22 
L 127.305 74.52 
M 134.955 66.87 
L 196.155 66.87 
" clip-path="url(#pb586cd668a)" style="fill: none; stroke: #000000; stroke-width: 2; stroke-linecap: round"/>
   </g>
   <g id="patch_2">
    <path d="M 12.555 44.685 
C 13.163641 44.685 13.747436 44.443184 14.17781 44.01281 
C 14.608184 43.582436 14.85 42.998641 14.85 42.39 
C 14.85 41.781359 14.608184 41.197564 14.17781 40.76719 
C 13.747436 40.336816 13.163641 40.095 12.555 40.095 
C 11.946359 40.095 11.362564 40.336816 10.93219 40.76719 
C 10.501816 41.197564 10.26 41.781359 10.26 42.39 
C 10.26 42.998641 10.501816 43.582436 10.93219 44.01281 
C 11.362564 44.443184 11.946359 44.685 12.555 44.685 
z
" clip-path="url(#pb586cd668a)" style="stroke: #000000; stroke-width: 2; stroke-linejoin: miter"/>
   </g>
   <g id="patch_3">
    <path d="M 257.355 44.685 
C 257.963641 44.685 258.547436 44.443184 258.97781 44.01281 
C 259.408184 43.582436 259.65 42.998641 259.65 42.39 
C 259.65 41.781359 259.408184 41.197564 258.97781 40.76719 
C 258.547436 40.336816 257.963641 40.095 257.355 40.095 
C 256.746359 40.095 256.162564 40.336816 255.73219 40.76719 
C 255.301816 41.197564 255.06 41.781359 255.06 42.39 
C 255.06 42.998641 255.301816 43.582436 255.73219 44.01281 
C 256.162564 44.443184 256.746359 44.685 257.355 44.685 
z
" clip-path="url(#pb586cd668a)" style="stroke: #000000; stroke-width: 2; stroke-linejoin: miter"/>
   </g>
  </g>
 </g>
 <defs>
  <clipPath id="pb586cd668a">
   <rect x="7.2" y="7.2" width="255.51" height="70.38"/>
  </clipPath>
 </defs>
</svg>
