<?xml version="1.0" encoding="utf-8" standalone="no"?>
<!DOCTYPE svg PUBLIC "-//W3C//DTD SVG 1.1//EN"
  "http://www.w3.org/Graphics/SVG/1.1/DTD/svg11.dtd">
<svg xmlns:xlink="http://www.w3.org/1999/xlink" width="269.91pt" height="35.82pt" viewBox="0 0 269.91 35.82" xmlns="http://www.w3.org/2000/svg" version="1.1">
 <metadata>
  <rdf:RDF xmlns:dc="http://purl.org/dc/elements/1.1/" xmlns:cc="http://creativecommons.org/ns#" xmlns:rdf="http://www.w3.org/1999/02/22-rdf-syntax-ns#">
   <cc:Work>
    <dc:type rdf:resource="http://purl.org/dc/dcmitype/StillImage"/>
    <dc:date>2023-07-20T13:05:30.323279</dc:date>
    <dc:format>image/svg+xml</dc:format>
    <dc:creator>
     <cc:Agent>
      <dc:title>Matplotlib v3.5.2, https://matplotlib.org/</dc:title>
     </cc:Agent>
    </dc:creator>
   </cc:Work>
  </rdf:RDF>
 </metadata>
 <defs>
  <style type="text/css">*{stroke-linejoin: round; stroke-linecap: butt}</style>
 </defs>
 <g id="figure_1">
  <g id="patch_1">
   <path d="M 0 35.82 
L 269.91 35.82 
L 269.91 -0 
L 0 -0 
L 0 35.82 
z
" style="fill: none"/>
  </g>
  <g id="axes_1">
   <g id="line2d_1">
    <path d="M 12.555 17.91 
L 134.955 17.91 
M 127.305 10.26 
L 142.605 25.56 
M 142.605 10.26 
L 127.305 25.56 
M 134.955 17.91 
L 257.355 17.91 
" clip-path="url(#p837344040c)" style="fill: none; stroke: #000000; stroke-width: 2; stroke-linecap: round"/>
   </g>
   <g id="patch_2">
    <path d="M 12.555 20.205 
C 13.163641 20.205 13.747436 19.963184 14.17781 19.53281 
C 14.608184 19.102436 14.85 18.518641 14.85 17.91 
C 14.85 17.301359 14.608184 16.717564 14.17781 16.28719 
C 13.747436 15.856816 13.163641 15.615 12.555 15.615 
C 11.946359 15.615 11.362564 15.856816 10.93219 16.28719 
C 10.501816 16.717564 10.26 17.301359 10.26 17.91 
C 10.26 18.518641 10.501816 19.102436 10.93219 19.53281 
C 11.362564 19.963184 11.946359 20.205 12.555 20.205 
z
" clip-path="url(#p837344040c)" style="stroke: #000000; stroke-width: 2; stroke-linejoin: miter"/>
   </g>
   <g id="patch_3">
    <path d="M 257.355 20.205 
C 257.963641 20.205 258.547436 19.963184 258.97781 19.53281 
C 259.408184 19.102436 259.65 18.518641 259.65 17.91 
C 259.65 17.301359 259.408184 16.717564 258.97781 16.28719 
C 258.547436 15.856816 257.963641 15.615 257.355 15.615 
C 256.746359 15.615 256.162564 15.856816 255.73219 16.28719 
C 255.301816 16.717564 255.06 17.301359 255.06 17.91 
C 255.06 18.518641 255.301816 19.102436 255.73219 19.53281 
C 256.162564 19.963184 256.746359 20.205 257.355 20.205 
z
" clip-path="url(#p837344040c)" style="stroke: #000000; stroke-width: 2; stroke-linejoin: miter"/>
   </g>
  </g>
 </g>
 <defs>
  <clipPath id="p837344040c">
   <rect x="7.2" y="7.2" width="255.51" height="21.42"/>
  </clipPath>
 </defs>
</svg>
