<?xml version="1.0" encoding="utf-8" standalone="no"?>
<!DOCTYPE svg PUBLIC "-//W3C//DTD SVG 1.1//EN"
  "http://www.w3.org/Graphics/SVG/1.1/DTD/svg11.dtd">
<svg xmlns:xlink="http://www.w3.org/1999/xlink" width="269.91pt" height="170.174974pt" viewBox="0 0 269.91 170.174974" xmlns="http://www.w3.org/2000/svg" version="1.1">
 <metadata>
  <rdf:RDF xmlns:dc="http://purl.org/dc/elements/1.1/" xmlns:cc="http://creativecommons.org/ns#" xmlns:rdf="http://www.w3.org/1999/02/22-rdf-syntax-ns#">
   <cc:Work>
    <dc:type rdf:resource="http://purl.org/dc/dcmitype/StillImage"/>
    <dc:date>2023-07-19T14:28:20.431736</dc:date>
    <dc:format>image/svg+xml</dc:format>
    <dc:creator>
     <cc:Agent>
      <dc:title>Matplotlib v3.5.2, https://matplotlib.org/</dc:title>
     </cc:Agent>
    </dc:creator>
   </cc:Work>
  </rdf:RDF>
 </metadata>
 <defs>
  <style type="text/css">*{stroke-linejoin: round; stroke-linecap: butt}</style>
 </defs>
 <g id="figure_1">
  <g id="patch_1">
   <path d="M 0 170.174974 
L 269.91 170.174974 
L 269.91 0 
L 0 0 
L 0 170.174974 
z
" style="fill: none"/>
  </g>
  <g id="axes_1">
   <g id="patch_2">
    <path d="M 174.425633 84.665633 
C 175.142685 83.948582 175.54595 82.975014 175.54595 81.96095 
C 175.54595 80.946886 175.142685 79.973318 174.425633 79.256266 
C 173.708582 78.539215 172.735014 78.13595 171.72095 78.13595 
C 170.706886 78.13595 169.733318 78.539215 169.016266 79.256266 
" clip-path="url(#p3215d8842e)" style="fill: none; stroke: #000000; stroke-width: 2; stroke-linejoin: miter"/>
   </g>
   <g id="patch_3">
    <path d="M 179.835 90.075 
C 180.552052 89.357948 180.955317 88.384381 180.955317 87.370317 
C 180.955317 86.356253 180.552052 85.382685 179.835 84.665633 
C 179.117948 83.948582 178.144381 83.545317 177.130317 83.545317 
C 176.116253 83.545317 175.142685 83.948582 174.425633 84.665633 
" clip-path="url(#p3215d8842e)" style="fill: none; stroke: #000000; stroke-width: 2; stroke-linejoin: miter"/>
   </g>
   <g id="patch_4">
    <path d="M 185.244367 95.484367 
C 185.961418 94.767315 186.364683 93.793747 186.364683 92.779683 
C 186.364683 91.765619 185.961418 90.792052 185.244367 90.075 
C 184.527315 89.357948 183.553747 88.954683 182.539683 88.954683 
C 181.525619 88.954683 180.552052 89.357948 179.835 90.075 
" clip-path="url(#p3215d8842e)" style="fill: none; stroke: #000000; stroke-width: 2; stroke-linejoin: miter"/>
   </g>
   <g id="patch_5">
    <path d="M 190.653734 100.893734 
C 191.370785 100.176682 191.77405 99.203114 191.77405 98.18905 
C 191.77405 97.174986 191.370785 96.201418 190.653734 95.484367 
C 189.936682 94.767315 188.963114 94.36405 187.94905 94.36405 
C 186.934986 94.36405 185.961418 94.767315 185.244367 95.484367 
" clip-path="url(#p3215d8842e)" style="fill: none; stroke: #000000; stroke-width: 2; stroke-linejoin: miter"/>
   </g>
   <g id="line2d_1">
    <path d="M 12.555 134.955 
L 91.680065 134.955 
" clip-path="url(#p3215d8842e)" style="fill: none; stroke: #000000; stroke-width: 2; stroke-linecap: round"/>
   </g>
   <g id="line2d_2">
    <path d="M 257.355 134.955 
L 178.229935 134.955 
" clip-path="url(#p3215d8842e)" style="fill: none; stroke: #000000; stroke-width: 2; stroke-linecap: round"/>
   </g>
   <g id="line2d_3">
    <path d="M 91.680065 117.645026 
L 91.680065 152.264974 
" clip-path="url(#p3215d8842e)" style="fill: none; stroke: #000000; stroke-width: 2; stroke-linecap: round"/>
   </g>
   <g id="line2d_4">
    <path d="M 178.229935 117.645026 
L 178.229935 152.264974 
" clip-path="url(#p3215d8842e)" style="fill: none; stroke: #000000; stroke-width: 2; stroke-linecap: round"/>
   </g>
   <g id="line2d_5">
    <path d="M 91.680065 117.645026 
L 132.201 117.645026 
M 132.201 109.995026 
L 132.201 125.295026 
M 137.709 109.995026 
L 137.709 125.295026 
M 137.709 117.645026 
L 178.229935 117.645026 
" clip-path="url(#p3215d8842e)" style="fill: none; stroke: #000000; stroke-width: 2; stroke-linecap: round"/>
   </g>
   <g id="line2d_6">
    <path d="M 91.680065 152.264974 
L 134.955 152.264974 
M 127.305 144.614974 
L 142.605 159.914974 
M 142.605 144.614974 
L 127.305 159.914974 
M 134.955 152.264974 
L 178.229935 152.264974 
" clip-path="url(#p3215d8842e)" style="fill: none; stroke: #000000; stroke-width: 2; stroke-linecap: round"/>
   </g>
   <g id="line2d_7">
    <path d="M 134.955 12.555 
L 165.555 43.155 
" clip-path="url(#p3215d8842e)" style="fill: none; stroke: #000000; stroke-width: 2; stroke-linecap: round"/>
   </g>
   <g id="line2d_8">
    <path d="M 257.355 134.955 
L 226.755 104.355 
" clip-path="url(#p3215d8842e)" style="fill: none; stroke: #000000; stroke-width: 2; stroke-linecap: round"/>
   </g>
   <g id="line2d_9">
    <path d="M 181.875 26.835 
L 149.235 59.475 
" clip-path="url(#p3215d8842e)" style="fill: none; stroke: #000000; stroke-width: 2; stroke-linecap: round"/>
   </g>
   <g id="line2d_10">
    <path d="M 243.075 88.035 
L 210.435 120.675 
" clip-path="url(#p3215d8842e)" style="fill: none; stroke: #000000; stroke-width: 2; stroke-linecap: round"/>
   </g>
   <g id="line2d_11">
    <path d="M 165.555 43.155 
L 194.207628 71.807628 
M 199.616995 66.398261 
L 188.798261 77.216995 
M 203.511739 70.293005 
L 192.693005 81.111739 
M 198.102372 75.702372 
L 226.755 104.355 
" clip-path="url(#p3215d8842e)" style="fill: none; stroke: #000000; stroke-width: 2; stroke-linecap: round"/>
   </g>
   <g id="line2d_12">
    <path d="M 181.875 26.835 
L 212.475 57.435 
M 212.475 46.616266 
L 212.475 68.253734 
M 223.293734 57.435 
L 201.656266 57.435 
M 212.475 57.435 
L 243.075 88.035 
" clip-path="url(#p3215d8842e)" style="fill: none; stroke: #000000; stroke-width: 2; stroke-linecap: round"/>
   </g>
   <g id="line2d_13">
    <path d="M 149.235 59.475 
L 169.016266 79.256266 
M 190.653734 100.893734 
L 210.435 120.675 
" clip-path="url(#p3215d8842e)" style="fill: none; stroke: #000000; stroke-width: 2; stroke-linecap: round"/>
   </g>
   <g id="patch_6">
    <path d="M 12.555 137.25 
C 13.163641 137.25 13.747436 137.008184 14.17781 136.57781 
C 14.608184 136.147436 14.85 135.563641 14.85 134.955 
C 14.85 134.346359 14.608184 133.762564 14.17781 133.33219 
C 13.747436 132.901816 13.163641 132.66 12.555 132.66 
C 11.946359 132.66 11.362564 132.901816 10.93219 133.33219 
C 10.501816 133.762564 10.26 134.346359 10.26 134.955 
C 10.26 135.563641 10.501816 136.147436 10.93219 136.57781 
C 11.362564 137.008184 11.946359 137.25 12.555 137.25 
z
" clip-path="url(#p3215d8842e)" style="stroke: #000000; stroke-width: 2; stroke-linejoin: miter"/>
   </g>
   <g id="patch_7">
    <path d="M 257.355 137.25 
C 257.963641 137.25 258.547436 137.008184 258.97781 136.57781 
C 259.408184 136.147436 259.65 135.563641 259.65 134.955 
C 259.65 134.346359 259.408184 133.762564 258.97781 133.33219 
C 258.547436 132.901816 257.963641 132.66 257.355 132.66 
C 256.746359 132.66 256.162564 132.901816 255.73219 133.33219 
C 255.301816 133.762564 255.06 134.346359 255.06 134.955 
C 255.06 135.563641 255.301816 136.147436 255.73219 136.57781 
C 256.162564 137.008184 256.746359 137.25 257.355 137.25 
z
" clip-path="url(#p3215d8842e)" style="stroke: #000000; stroke-width: 2; stroke-linejoin: miter"/>
   </g>
   <g id="patch_8">
    <path d="M 134.955 14.85 
C 135.563641 14.85 136.147436 14.608184 136.57781 14.17781 
C 137.008184 13.747436 137.25 13.163641 137.25 12.555 
C 137.25 11.946359 137.008184 11.362564 136.57781 10.93219 
C 136.147436 10.501816 135.563641 10.26 134.955 10.26 
C 134.346359 10.26 133.762564 10.501816 133.33219 10.93219 
C 132.901816 11.362564 132.66 11.946359 132.66 12.555 
C 132.66 13.163641 132.901816 13.747436 133.33219 14.17781 
C 133.762564 14.608184 134.346359 14.85 134.955 14.85 
z
" clip-path="url(#p3215d8842e)" style="stroke: #000000; stroke-width: 2; stroke-linejoin: miter"/>
   </g>
  </g>
 </g>
 <defs>
  <clipPath id="p3215d8842e">
   <rect x="7.2" y="7.2" width="255.51" height="155.774974"/>
  </clipPath>
 </defs>
</svg>
