<?xml version="1.0" encoding="utf-8" standalone="no"?>
<!DOCTYPE svg PUBLIC "-//W3C//DTD SVG 1.1//EN"
  "http://www.w3.org/Graphics/SVG/1.1/DTD/svg11.dtd">
<svg xmlns:xlink="http://www.w3.org/1999/xlink" width="269.91pt" height="168.294965pt" viewBox="0 0 269.91 168.294965" xmlns="http://www.w3.org/2000/svg" version="1.1">
 <metadata>
  <rdf:RDF xmlns:dc="http://purl.org/dc/elements/1.1/" xmlns:cc="http://creativecommons.org/ns#" xmlns:rdf="http://www.w3.org/1999/02/22-rdf-syntax-ns#">
   <cc:Work>
    <dc:type rdf:resource="http://purl.org/dc/dcmitype/StillImage"/>
    <dc:date>2023-07-20T11:58:13.352172</dc:date>
    <dc:format>image/svg+xml</dc:format>
    <dc:creator>
     <cc:Agent>
      <dc:title>Matplotlib v3.5.2, https://matplotlib.org/</dc:title>
     </cc:Agent>
    </dc:creator>
   </cc:Work>
  </rdf:RDF>
 </metadata>
 <defs>
  <style type="text/css">*{stroke-linejoin: round; stroke-linecap: butt}</style>
 </defs>
 <g id="figure_1">
  <g id="patch_1">
   <path d="M 0 168.294965 
L 269.91 168.294965 
L 269.91 0 
L 0 0 
L 0 168.294965 
z
" style="fill: none"/>
  </g>
  <g id="axes_1">
   <g id="patch_2">
    <path d="M 127.305 158.034965 
C 127.305 157.020901 126.901735 156.047333 126.184683 155.330282 
C 125.467632 154.61323 124.494064 154.209965 123.48 154.209965 
C 122.465936 154.209965 121.492368 154.61323 120.775317 155.330282 
C 120.058265 156.047333 119.655 157.020901 119.655 158.034965 
" clip-path="url(#pbed23315b7)" style="fill: none; stroke: #000000; stroke-width: 2; stroke-linejoin: miter"/>
   </g>
   <g id="patch_3">
    <path d="M 134.955 158.034965 
C 134.955 157.020901 134.551735 156.047333 133.834683 155.330282 
C 133.117632 154.61323 132.144064 154.209965 131.13 154.209965 
C 130.115936 154.209965 129.142368 154.61323 128.425317 155.330282 
C 127.708265 156.047333 127.305 157.020901 127.305 158.034965 
" clip-path="url(#pbed23315b7)" style="fill: none; stroke: #000000; stroke-width: 2; stroke-linejoin: miter"/>
   </g>
   <g id="patch_4">
    <path d="M 142.605 158.034965 
C 142.605 157.020901 142.201735 156.047333 141.484683 155.330282 
C 140.767632 154.61323 139.794064 154.209965 138.78 154.209965 
C 137.765936 154.209965 136.792368 154.61323 136.075317 155.330282 
C 135.358265 156.047333 134.955 157.020901 134.955 158.034965 
" clip-path="url(#pbed23315b7)" style="fill: none; stroke: #000000; stroke-width: 2; stroke-linejoin: miter"/>
   </g>
   <g id="patch_5">
    <path d="M 150.255 158.034965 
C 150.255 157.020901 149.851735 156.047333 149.134683 155.330282 
C 148.417632 154.61323 147.444064 154.209965 146.43 154.209965 
C 145.415936 154.209965 144.442368 154.61323 143.725317 155.330282 
C 143.008265 156.047333 142.605 157.020901 142.605 158.034965 
" clip-path="url(#pbed23315b7)" style="fill: none; stroke: #000000; stroke-width: 2; stroke-linejoin: miter"/>
   </g>
   <g id="patch_6">
    <path d="M 84.665633 95.484367 
C 83.948582 94.767315 82.975014 94.36405 81.96095 94.36405 
C 80.946886 94.36405 79.973318 94.767315 79.256266 95.484367 
C 78.539215 96.201418 78.13595 97.174986 78.13595 98.18905 
C 78.13595 99.203114 78.539215 100.176682 79.256266 100.893734 
" clip-path="url(#pbed23315b7)" style="fill: none; stroke: #000000; stroke-width: 2; stroke-linejoin: miter"/>
   </g>
   <g id="patch_7">
    <path d="M 90.075 90.075 
C 89.357948 89.357948 88.384381 88.954683 87.370317 88.954683 
C 86.356253 88.954683 85.382685 89.357948 84.665633 90.075 
C 83.948582 90.792052 83.545317 91.765619 83.545317 92.779683 
C 83.545317 93.793747 83.948582 94.767315 84.665633 95.484367 
" clip-path="url(#pbed23315b7)" style="fill: none; stroke: #000000; stroke-width: 2; stroke-linejoin: miter"/>
   </g>
   <g id="patch_8">
    <path d="M 95.484367 84.665633 
C 94.767315 83.948582 93.793747 83.545317 92.779683 83.545317 
C 91.765619 83.545317 90.792052 83.948582 90.075 84.665633 
C 89.357948 85.382685 88.954683 86.356253 88.954683 87.370317 
C 88.954683 88.384381 89.357948 89.357948 90.075 90.075 
" clip-path="url(#pbed23315b7)" style="fill: none; stroke: #000000; stroke-width: 2; stroke-linejoin: miter"/>
   </g>
   <g id="patch_9">
    <path d="M 100.893734 79.256266 
C 100.176682 78.539215 99.203114 78.13595 98.18905 78.13595 
C 97.174986 78.13595 96.201418 78.539215 95.484367 79.256266 
C 94.767315 79.973318 94.36405 80.946886 94.36405 81.96095 
C 94.36405 82.975014 94.767315 83.948582 95.484367 84.665633 
" clip-path="url(#pbed23315b7)" style="fill: none; stroke: #000000; stroke-width: 2; stroke-linejoin: miter"/>
   </g>
   <g id="patch_10">
    <path d="M 217.884367 62.844367 
C 217.167315 63.561418 216.76405 64.534986 216.76405 65.54905 
C 216.76405 66.563114 217.167315 67.536682 217.884367 68.253734 
C 218.601418 68.970785 219.574986 69.37405 220.58905 69.37405 
C 221.603114 69.37405 222.576682 68.970785 223.293734 68.253734 
" clip-path="url(#pbed23315b7)" style="fill: none; stroke: #000000; stroke-width: 2; stroke-linejoin: miter"/>
   </g>
   <g id="patch_11">
    <path d="M 212.475 57.435 
C 211.757948 58.152052 211.354683 59.125619 211.354683 60.139683 
C 211.354683 61.153747 211.757948 62.127315 212.475 62.844367 
C 213.192052 63.561418 214.165619 63.964683 215.179683 63.964683 
C 216.193747 63.964683 217.167315 63.561418 217.884367 62.844367 
" clip-path="url(#pbed23315b7)" style="fill: none; stroke: #000000; stroke-width: 2; stroke-linejoin: miter"/>
   </g>
   <g id="patch_12">
    <path d="M 207.065633 52.025633 
C 206.348582 52.742685 205.945317 53.716253 205.945317 54.730317 
C 205.945317 55.744381 206.348582 56.717948 207.065633 57.435 
C 207.782685 58.152052 208.756253 58.555317 209.770317 58.555317 
C 210.784381 58.555317 211.757948 58.152052 212.475 57.435 
" clip-path="url(#pbed23315b7)" style="fill: none; stroke: #000000; stroke-width: 2; stroke-linejoin: miter"/>
   </g>
   <g id="patch_13">
    <path d="M 201.656266 46.616266 
C 200.939215 47.333318 200.53595 48.306886 200.53595 49.32095 
C 200.53595 50.335014 200.939215 51.308582 201.656266 52.025633 
C 202.373318 52.742685 203.346886 53.14595 204.36095 53.14595 
C 205.375014 53.14595 206.348582 52.742685 207.065633 52.025633 
" clip-path="url(#pbed23315b7)" style="fill: none; stroke: #000000; stroke-width: 2; stroke-linejoin: miter"/>
   </g>
   <g id="line2d_1">
    <path d="M 12.555 134.955 
L 91.680065 134.955 
" clip-path="url(#pbed23315b7)" style="fill: none; stroke: #000000; stroke-width: 2; stroke-linecap: round"/>
   </g>
   <g id="line2d_2">
    <path d="M 257.355 134.955 
L 178.229935 134.955 
" clip-path="url(#pbed23315b7)" style="fill: none; stroke: #000000; stroke-width: 2; stroke-linecap: round"/>
   </g>
   <g id="line2d_3">
    <path d="M 91.680065 111.875035 
L 91.680065 158.034965 
" clip-path="url(#pbed23315b7)" style="fill: none; stroke: #000000; stroke-width: 2; stroke-linecap: round"/>
   </g>
   <g id="line2d_4">
    <path d="M 178.229935 111.875035 
L 178.229935 158.034965 
" clip-path="url(#pbed23315b7)" style="fill: none; stroke: #000000; stroke-width: 2; stroke-linecap: round"/>
   </g>
   <g id="line2d_5">
    <path d="M 91.680065 134.955 
L 132.201 134.955 
M 132.201 127.305 
L 132.201 142.605 
M 137.709 127.305 
L 137.709 142.605 
M 137.709 134.955 
L 178.229935 134.955 
" clip-path="url(#pbed23315b7)" style="fill: none; stroke: #000000; stroke-width: 2; stroke-linecap: round"/>
   </g>
   <g id="line2d_6">
    <path d="M 91.680065 111.875035 
L 134.955 111.875035 
M 127.305 104.225035 
L 142.605 119.525035 
M 142.605 104.225035 
L 127.305 119.525035 
M 134.955 111.875035 
L 178.229935 111.875035 
" clip-path="url(#pbed23315b7)" style="fill: none; stroke: #000000; stroke-width: 2; stroke-linecap: round"/>
   </g>
   <g id="line2d_7">
    <path d="M 91.680065 158.034965 
L 119.655 158.034965 
M 150.255 158.034965 
L 178.229935 158.034965 
" clip-path="url(#pbed23315b7)" style="fill: none; stroke: #000000; stroke-width: 2; stroke-linecap: round"/>
   </g>
   <g id="line2d_8">
    <path d="M 12.555 134.955 
L 43.155 104.355 
" clip-path="url(#pbed23315b7)" style="fill: none; stroke: #000000; stroke-width: 2; stroke-linecap: round"/>
   </g>
   <g id="line2d_9">
    <path d="M 134.955 12.555 
L 104.355 43.155 
" clip-path="url(#pbed23315b7)" style="fill: none; stroke: #000000; stroke-width: 2; stroke-linecap: round"/>
   </g>
   <g id="line2d_10">
    <path d="M 26.835 88.035 
L 59.475 120.675 
" clip-path="url(#pbed23315b7)" style="fill: none; stroke: #000000; stroke-width: 2; stroke-linecap: round"/>
   </g>
   <g id="line2d_11">
    <path d="M 88.035 26.835 
L 120.675 59.475 
" clip-path="url(#pbed23315b7)" style="fill: none; stroke: #000000; stroke-width: 2; stroke-linecap: round"/>
   </g>
   <g id="line2d_12">
    <path d="M 43.155 104.355 
L 71.807628 75.702372 
M 66.398261 70.293005 
L 77.216995 81.111739 
M 70.293005 66.398261 
L 81.111739 77.216995 
M 75.702372 71.807628 
L 104.355 43.155 
" clip-path="url(#pbed23315b7)" style="fill: none; stroke: #000000; stroke-width: 2; stroke-linecap: round"/>
   </g>
   <g id="line2d_13">
    <path d="M 26.835 88.035 
L 57.435 57.435 
M 46.616266 57.435 
L 68.253734 57.435 
M 57.435 46.616266 
L 57.435 68.253734 
M 57.435 57.435 
L 88.035 26.835 
" clip-path="url(#pbed23315b7)" style="fill: none; stroke: #000000; stroke-width: 2; stroke-linecap: round"/>
   </g>
   <g id="line2d_14">
    <path d="M 59.475 120.675 
L 79.256266 100.893734 
M 100.893734 79.256266 
L 120.675 59.475 
" clip-path="url(#pbed23315b7)" style="fill: none; stroke: #000000; stroke-width: 2; stroke-linecap: round"/>
   </g>
   <g id="line2d_15">
    <path d="M 257.355 134.955 
L 226.755 104.355 
" clip-path="url(#pbed23315b7)" style="fill: none; stroke: #000000; stroke-width: 2; stroke-linecap: round"/>
   </g>
   <g id="line2d_16">
    <path d="M 134.955 12.555 
L 165.555 43.155 
" clip-path="url(#pbed23315b7)" style="fill: none; stroke: #000000; stroke-width: 2; stroke-linecap: round"/>
   </g>
   <g id="line2d_17">
    <path d="M 210.435 120.675 
L 243.075 88.035 
" clip-path="url(#pbed23315b7)" style="fill: none; stroke: #000000; stroke-width: 2; stroke-linecap: round"/>
   </g>
   <g id="line2d_18">
    <path d="M 149.235 59.475 
L 181.875 26.835 
" clip-path="url(#pbed23315b7)" style="fill: none; stroke: #000000; stroke-width: 2; stroke-linecap: round"/>
   </g>
   <g id="line2d_19">
    <path d="M 226.755 104.355 
L 198.102372 75.702372 
M 192.693005 81.111739 
L 203.511739 70.293005 
M 188.798261 77.216995 
L 199.616995 66.398261 
M 194.207628 71.807628 
L 165.555 43.155 
" clip-path="url(#pbed23315b7)" style="fill: none; stroke: #000000; stroke-width: 2; stroke-linecap: round"/>
   </g>
   <g id="line2d_20">
    <path d="M 210.435 120.675 
L 179.835 90.075 
M 179.835 100.893734 
L 179.835 79.256266 
M 169.016266 90.075 
L 190.653734 90.075 
M 179.835 90.075 
L 149.235 59.475 
" clip-path="url(#pbed23315b7)" style="fill: none; stroke: #000000; stroke-width: 2; stroke-linecap: round"/>
   </g>
   <g id="line2d_21">
    <path d="M 243.075 88.035 
L 223.293734 68.253734 
M 201.656266 46.616266 
L 181.875 26.835 
" clip-path="url(#pbed23315b7)" style="fill: none; stroke: #000000; stroke-width: 2; stroke-linecap: round"/>
   </g>
   <g id="patch_14">
    <path d="M 12.555 137.25 
C 13.163641 137.25 13.747436 137.008184 14.17781 136.57781 
C 14.608184 136.147436 14.85 135.563641 14.85 134.955 
C 14.85 134.346359 14.608184 133.762564 14.17781 133.33219 
C 13.747436 132.901816 13.163641 132.66 12.555 132.66 
C 11.946359 132.66 11.362564 132.901816 10.93219 133.33219 
C 10.501816 133.762564 10.26 134.346359 10.26 134.955 
C 10.26 135.563641 10.501816 136.147436 10.93219 136.57781 
C 11.362564 137.008184 11.946359 137.25 12.555 137.25 
z
" clip-path="url(#pbed23315b7)" style="stroke: #000000; stroke-width: 2; stroke-linejoin: miter"/>
   </g>
   <g id="patch_15">
    <path d="M 257.355 137.25 
C 257.963641 137.25 258.547436 137.008184 258.97781 136.57781 
C 259.408184 136.147436 259.65 135.563641 259.65 134.955 
C 259.65 134.346359 259.408184 133.762564 258.97781 133.33219 
C 258.547436 132.901816 257.963641 132.66 257.355 132.66 
C 256.746359 132.66 256.162564 132.901816 255.73219 133.33219 
C 255.301816 133.762564 255.06 134.346359 255.06 134.955 
C 255.06 135.563641 255.301816 136.147436 255.73219 136.57781 
C 256.162564 137.008184 256.746359 137.25 257.355 137.25 
z
" clip-path="url(#pbed23315b7)" style="stroke: #000000; stroke-width: 2; stroke-linejoin: miter"/>
   </g>
   <g id="patch_16">
    <path d="M 134.955 14.85 
C 135.563641 14.85 136.147436 14.608184 136.57781 14.17781 
C 137.008184 13.747436 137.25 13.163641 137.25 12.555 
C 137.25 11.946359 137.008184 11.362564 136.57781 10.93219 
C 136.147436 10.501816 135.563641 10.26 134.955 10.26 
C 134.346359 10.26 133.762564 10.501816 133.33219 10.93219 
C 132.901816 11.362564 132.66 11.946359 132.66 12.555 
C 132.66 13.163641 132.901816 13.747436 133.33219 14.17781 
C 133.762564 14.608184 134.346359 14.85 134.955 14.85 
z
" clip-path="url(#pbed23315b7)" style="stroke: #000000; stroke-width: 2; stroke-linejoin: miter"/>
   </g>
  </g>
 </g>
 <defs>
  <clipPath id="pbed23315b7">
   <rect x="7.2" y="7.2" width="255.51" height="153.894965"/>
  </clipPath>
 </defs>
</svg>
