<?xml version="1.0" encoding="utf-8" standalone="no"?>
<!DOCTYPE svg PUBLIC "-//W3C//DTD SVG 1.1//EN"
  "http://www.w3.org/Graphics/SVG/1.1/DTD/svg11.dtd">
<svg xmlns:xlink="http://www.w3.org/1999/xlink" width="269.91pt" height="170.174974pt" viewBox="0 0 269.91 170.174974" xmlns="http://www.w3.org/2000/svg" version="1.1">
 <metadata>
  <rdf:RDF xmlns:dc="http://purl.org/dc/elements/1.1/" xmlns:cc="http://creativecommons.org/ns#" xmlns:rdf="http://www.w3.org/1999/02/22-rdf-syntax-ns#">
   <cc:Work>
    <dc:type rdf:resource="http://purl.org/dc/dcmitype/StillImage"/>
    <dc:date>2023-07-20T10:51:43.514449</dc:date>
    <dc:format>image/svg+xml</dc:format>
    <dc:creator>
     <cc:Agent>
      <dc:title>Matplotlib v3.5.2, https://matplotlib.org/</dc:title>
     </cc:Agent>
    </dc:creator>
   </cc:Work>
  </rdf:RDF>
 </metadata>
 <defs>
  <style type="text/css">*{stroke-linejoin: round; stroke-linecap: butt}</style>
 </defs>
 <g id="figure_1">
  <g id="patch_1">
   <path d="M 0 170.174974 
L 269.91 170.174974 
L 269.91 0 
L 0 0 
L 0 170.174974 
z
" style="fill: none"/>
  </g>
  <g id="axes_1">
   <g id="patch_2">
    <path d="M 213.804367 66.924367 
C 213.087315 67.641418 212.68405 68.614986 212.68405 69.62905 
C 212.68405 70.643114 213.087315 71.616682 213.804367 72.333734 
C 214.521418 73.050785 215.494986 73.45405 216.50905 73.45405 
C 217.523114 73.45405 218.496682 73.050785 219.213734 72.333734 
" clip-path="url(#peafd3e3c88)" style="fill: none; stroke: #000000; stroke-width: 2; stroke-linejoin: miter"/>
   </g>
   <g id="patch_3">
    <path d="M 208.395 61.515 
C 207.677948 62.232052 207.274683 63.205619 207.274683 64.219683 
C 207.274683 65.233747 207.677948 66.207315 208.395 66.924367 
C 209.112052 67.641418 210.085619 68.044683 211.099683 68.044683 
C 212.113747 68.044683 213.087315 67.641418 213.804367 66.924367 
" clip-path="url(#peafd3e3c88)" style="fill: none; stroke: #000000; stroke-width: 2; stroke-linejoin: miter"/>
   </g>
   <g id="patch_4">
    <path d="M 202.985633 56.105633 
C 202.268582 56.822685 201.865317 57.796253 201.865317 58.810317 
C 201.865317 59.824381 202.268582 60.797948 202.985633 61.515 
C 203.702685 62.232052 204.676253 62.635317 205.690317 62.635317 
C 206.704381 62.635317 207.677948 62.232052 208.395 61.515 
" clip-path="url(#peafd3e3c88)" style="fill: none; stroke: #000000; stroke-width: 2; stroke-linejoin: miter"/>
   </g>
   <g id="patch_5">
    <path d="M 197.576266 50.696266 
C 196.859215 51.413318 196.45595 52.386886 196.45595 53.40095 
C 196.45595 54.415014 196.859215 55.388582 197.576266 56.105633 
C 198.293318 56.822685 199.266886 57.22595 200.28095 57.22595 
C 201.295014 57.22595 202.268582 56.822685 202.985633 56.105633 
" clip-path="url(#peafd3e3c88)" style="fill: none; stroke: #000000; stroke-width: 2; stroke-linejoin: miter"/>
   </g>
   <g id="line2d_1">
    <path d="M 12.555 134.955 
L 91.680065 134.955 
" clip-path="url(#peafd3e3c88)" style="fill: none; stroke: #000000; stroke-width: 2; stroke-linecap: round"/>
   </g>
   <g id="line2d_2">
    <path d="M 257.355 134.955 
L 178.229935 134.955 
" clip-path="url(#peafd3e3c88)" style="fill: none; stroke: #000000; stroke-width: 2; stroke-linecap: round"/>
   </g>
   <g id="line2d_3">
    <path d="M 91.680065 117.645026 
L 91.680065 152.264974 
" clip-path="url(#peafd3e3c88)" style="fill: none; stroke: #000000; stroke-width: 2; stroke-linecap: round"/>
   </g>
   <g id="line2d_4">
    <path d="M 178.229935 117.645026 
L 178.229935 152.264974 
" clip-path="url(#peafd3e3c88)" style="fill: none; stroke: #000000; stroke-width: 2; stroke-linecap: round"/>
   </g>
   <g id="line2d_5">
    <path d="M 91.680065 117.645026 
L 132.201 117.645026 
M 132.201 109.995026 
L 132.201 125.295026 
M 137.709 109.995026 
L 137.709 125.295026 
M 137.709 117.645026 
L 178.229935 117.645026 
" clip-path="url(#peafd3e3c88)" style="fill: none; stroke: #000000; stroke-width: 2; stroke-linecap: round"/>
   </g>
   <g id="line2d_6">
    <path d="M 91.680065 152.264974 
L 134.955 152.264974 
M 127.305 144.614974 
L 142.605 159.914974 
M 142.605 144.614974 
L 127.305 159.914974 
M 134.955 152.264974 
L 178.229935 152.264974 
" clip-path="url(#peafd3e3c88)" style="fill: none; stroke: #000000; stroke-width: 2; stroke-linecap: round"/>
   </g>
   <g id="line2d_7">
    <path d="M 12.555 134.955 
L 43.155 104.355 
" clip-path="url(#peafd3e3c88)" style="fill: none; stroke: #000000; stroke-width: 2; stroke-linecap: round"/>
   </g>
   <g id="line2d_8">
    <path d="M 134.955 12.555 
L 104.355 43.155 
" clip-path="url(#peafd3e3c88)" style="fill: none; stroke: #000000; stroke-width: 2; stroke-linecap: round"/>
   </g>
   <g id="line2d_9">
    <path d="M 30.915 92.115 
L 55.395 116.595 
" clip-path="url(#peafd3e3c88)" style="fill: none; stroke: #000000; stroke-width: 2; stroke-linecap: round"/>
   </g>
   <g id="line2d_10">
    <path d="M 92.115 30.915 
L 116.595 55.395 
" clip-path="url(#peafd3e3c88)" style="fill: none; stroke: #000000; stroke-width: 2; stroke-linecap: round"/>
   </g>
   <g id="line2d_11">
    <path d="M 30.915 92.115 
L 59.567628 63.462372 
M 54.158261 58.053005 
L 64.976995 68.871739 
M 58.053005 54.158261 
L 68.871739 64.976995 
M 63.462372 59.567628 
L 92.115 30.915 
" clip-path="url(#peafd3e3c88)" style="fill: none; stroke: #000000; stroke-width: 2; stroke-linecap: round"/>
   </g>
   <g id="line2d_12">
    <path d="M 55.395 116.595 
L 85.995 85.995 
M 75.176266 85.995 
L 96.813734 85.995 
M 85.995 75.176266 
L 85.995 96.813734 
M 85.995 85.995 
L 116.595 55.395 
" clip-path="url(#peafd3e3c88)" style="fill: none; stroke: #000000; stroke-width: 2; stroke-linecap: round"/>
   </g>
   <g id="line2d_13">
    <path d="M 257.355 134.955 
L 226.755 104.355 
" clip-path="url(#peafd3e3c88)" style="fill: none; stroke: #000000; stroke-width: 2; stroke-linecap: round"/>
   </g>
   <g id="line2d_14">
    <path d="M 134.955 12.555 
L 165.555 43.155 
" clip-path="url(#peafd3e3c88)" style="fill: none; stroke: #000000; stroke-width: 2; stroke-linecap: round"/>
   </g>
   <g id="line2d_15">
    <path d="M 214.515 116.595 
L 238.995 92.115 
" clip-path="url(#peafd3e3c88)" style="fill: none; stroke: #000000; stroke-width: 2; stroke-linecap: round"/>
   </g>
   <g id="line2d_16">
    <path d="M 153.315 55.395 
L 177.795 30.915 
" clip-path="url(#peafd3e3c88)" style="fill: none; stroke: #000000; stroke-width: 2; stroke-linecap: round"/>
   </g>
   <g id="line2d_17">
    <path d="M 214.515 116.595 
L 185.862372 87.942372 
M 180.453005 93.351739 
L 191.271739 82.533005 
M 176.558261 89.456995 
L 187.376995 78.638261 
M 181.967628 84.047628 
L 153.315 55.395 
" clip-path="url(#peafd3e3c88)" style="fill: none; stroke: #000000; stroke-width: 2; stroke-linecap: round"/>
   </g>
   <g id="line2d_18">
    <path d="M 238.995 92.115 
L 219.213734 72.333734 
M 197.576266 50.696266 
L 177.795 30.915 
" clip-path="url(#peafd3e3c88)" style="fill: none; stroke: #000000; stroke-width: 2; stroke-linecap: round"/>
   </g>
   <g id="patch_6">
    <path d="M 12.555 137.25 
C 13.163641 137.25 13.747436 137.008184 14.17781 136.57781 
C 14.608184 136.147436 14.85 135.563641 14.85 134.955 
C 14.85 134.346359 14.608184 133.762564 14.17781 133.33219 
C 13.747436 132.901816 13.163641 132.66 12.555 132.66 
C 11.946359 132.66 11.362564 132.901816 10.93219 133.33219 
C 10.501816 133.762564 10.26 134.346359 10.26 134.955 
C 10.26 135.563641 10.501816 136.147436 10.93219 136.57781 
C 11.362564 137.008184 11.946359 137.25 12.555 137.25 
z
" clip-path="url(#peafd3e3c88)" style="stroke: #000000; stroke-width: 2; stroke-linejoin: miter"/>
   </g>
   <g id="patch_7">
    <path d="M 257.355 137.25 
C 257.963641 137.25 258.547436 137.008184 258.97781 136.57781 
C 259.408184 136.147436 259.65 135.563641 259.65 134.955 
C 259.65 134.346359 259.408184 133.762564 258.97781 133.33219 
C 258.547436 132.901816 257.963641 132.66 257.355 132.66 
C 256.746359 132.66 256.162564 132.901816 255.73219 133.33219 
C 255.301816 133.762564 255.06 134.346359 255.06 134.955 
C 255.06 135.563641 255.301816 136.147436 255.73219 136.57781 
C 256.162564 137.008184 256.746359 137.25 257.355 137.25 
z
" clip-path="url(#peafd3e3c88)" style="stroke: #000000; stroke-width: 2; stroke-linejoin: miter"/>
   </g>
   <g id="patch_8">
    <path d="M 134.955 14.85 
C 135.563641 14.85 136.147436 14.608184 136.57781 14.17781 
C 137.008184 13.747436 137.25 13.163641 137.25 12.555 
C 137.25 11.946359 137.008184 11.362564 136.57781 10.93219 
C 136.147436 10.501816 135.563641 10.26 134.955 10.26 
C 134.346359 10.26 133.762564 10.501816 133.33219 10.93219 
C 132.901816 11.362564 132.66 11.946359 132.66 12.555 
C 132.66 13.163641 132.901816 13.747436 133.33219 14.17781 
C 133.762564 14.608184 134.346359 14.85 134.955 14.85 
z
" clip-path="url(#peafd3e3c88)" style="stroke: #000000; stroke-width: 2; stroke-linejoin: miter"/>
   </g>
  </g>
 </g>
 <defs>
  <clipPath id="peafd3e3c88">
   <rect x="7.2" y="7.2" width="255.51" height="155.774974"/>
  </clipPath>
 </defs>
</svg>
