<?xml version="1.0" encoding="utf-8" standalone="no"?>
<!DOCTYPE svg PUBLIC "-//W3C//DTD SVG 1.1//EN"
  "http://www.w3.org/Graphics/SVG/1.1/DTD/svg11.dtd">
<svg xmlns:xlink="http://www.w3.org/1999/xlink" width="269.91pt" height="162.524974pt" viewBox="0 0 269.91 162.524974" xmlns="http://www.w3.org/2000/svg" version="1.1">
 <metadata>
  <rdf:RDF xmlns:dc="http://purl.org/dc/elements/1.1/" xmlns:cc="http://creativecommons.org/ns#" xmlns:rdf="http://www.w3.org/1999/02/22-rdf-syntax-ns#">
   <cc:Work>
    <dc:type rdf:resource="http://purl.org/dc/dcmitype/StillImage"/>
    <dc:date>2023-07-20T12:51:51.379912</dc:date>
    <dc:format>image/svg+xml</dc:format>
    <dc:creator>
     <cc:Agent>
      <dc:title>Matplotlib v3.5.2, https://matplotlib.org/</dc:title>
     </cc:Agent>
    </dc:creator>
   </cc:Work>
  </rdf:RDF>
 </metadata>
 <defs>
  <style type="text/css">*{stroke-linejoin: round; stroke-linecap: butt}</style>
 </defs>
 <g id="figure_1">
  <g id="patch_1">
   <path d="M 0 162.524974 
L 269.91 162.524974 
L 269.91 0 
L 0 0 
L 0 162.524974 
z
" style="fill: none"/>
  </g>
  <g id="axes_1">
   <g id="patch_2">
    <path d="M 127.305 152.264974 
C 127.305 151.25091 126.901735 150.277342 126.184683 149.560291 
C 125.467632 148.843239 124.494064 148.439974 123.48 148.439974 
C 122.465936 148.439974 121.492368 148.843239 120.775317 149.560291 
C 120.058265 150.277342 119.655 151.25091 119.655 152.264974 
" clip-path="url(#pb273ce6c52)" style="fill: none; stroke: #000000; stroke-width: 2; stroke-linejoin: miter"/>
   </g>
   <g id="patch_3">
    <path d="M 134.955 152.264974 
C 134.955 151.25091 134.551735 150.277342 133.834683 149.560291 
C 133.117632 148.843239 132.144064 148.439974 131.13 148.439974 
C 130.115936 148.439974 129.142368 148.843239 128.425317 149.560291 
C 127.708265 150.277342 127.305 151.25091 127.305 152.264974 
" clip-path="url(#pb273ce6c52)" style="fill: none; stroke: #000000; stroke-width: 2; stroke-linejoin: miter"/>
   </g>
   <g id="patch_4">
    <path d="M 142.605 152.264974 
C 142.605 151.25091 142.201735 150.277342 141.484683 149.560291 
C 140.767632 148.843239 139.794064 148.439974 138.78 148.439974 
C 137.765936 148.439974 136.792368 148.843239 136.075317 149.560291 
C 135.358265 150.277342 134.955 151.25091 134.955 152.264974 
" clip-path="url(#pb273ce6c52)" style="fill: none; stroke: #000000; stroke-width: 2; stroke-linejoin: miter"/>
   </g>
   <g id="patch_5">
    <path d="M 150.255 152.264974 
C 150.255 151.25091 149.851735 150.277342 149.134683 149.560291 
C 148.417632 148.843239 147.444064 148.439974 146.43 148.439974 
C 145.415936 148.439974 144.442368 148.843239 143.725317 149.560291 
C 143.008265 150.277342 142.605 151.25091 142.605 152.264974 
" clip-path="url(#pb273ce6c52)" style="fill: none; stroke: #000000; stroke-width: 2; stroke-linejoin: miter"/>
   </g>
   <g id="patch_6">
    <path d="M 80.585633 91.404367 
C 79.868582 90.687315 78.895014 90.28405 77.88095 90.28405 
C 76.866886 90.28405 75.893318 90.687315 75.176266 91.404367 
C 74.459215 92.121418 74.05595 93.094986 74.05595 94.10905 
C 74.05595 95.123114 74.459215 96.096682 75.176266 96.813734 
" clip-path="url(#pb273ce6c52)" style="fill: none; stroke: #000000; stroke-width: 2; stroke-linejoin: miter"/>
   </g>
   <g id="patch_7">
    <path d="M 85.995 85.995 
C 85.277948 85.277948 84.304381 84.874683 83.290317 84.874683 
C 82.276253 84.874683 81.302685 85.277948 80.585633 85.995 
C 79.868582 86.712052 79.465317 87.685619 79.465317 88.699683 
C 79.465317 89.713747 79.868582 90.687315 80.585633 91.404367 
" clip-path="url(#pb273ce6c52)" style="fill: none; stroke: #000000; stroke-width: 2; stroke-linejoin: miter"/>
   </g>
   <g id="patch_8">
    <path d="M 91.404367 80.585633 
C 90.687315 79.868582 89.713747 79.465317 88.699683 79.465317 
C 87.685619 79.465317 86.712052 79.868582 85.995 80.585633 
C 85.277948 81.302685 84.874683 82.276253 84.874683 83.290317 
C 84.874683 84.304381 85.277948 85.277948 85.995 85.995 
" clip-path="url(#pb273ce6c52)" style="fill: none; stroke: #000000; stroke-width: 2; stroke-linejoin: miter"/>
   </g>
   <g id="patch_9">
    <path d="M 96.813734 75.176266 
C 96.096682 74.459215 95.123114 74.05595 94.10905 74.05595 
C 93.094986 74.05595 92.121418 74.459215 91.404367 75.176266 
C 90.687315 75.893318 90.28405 76.866886 90.28405 77.88095 
C 90.28405 78.895014 90.687315 79.868582 91.404367 80.585633 
" clip-path="url(#pb273ce6c52)" style="fill: none; stroke: #000000; stroke-width: 2; stroke-linejoin: miter"/>
   </g>
   <g id="patch_10">
    <path d="M 217.884367 62.844367 
C 217.167315 63.561418 216.76405 64.534986 216.76405 65.54905 
C 216.76405 66.563114 217.167315 67.536682 217.884367 68.253734 
C 218.601418 68.970785 219.574986 69.37405 220.58905 69.37405 
C 221.603114 69.37405 222.576682 68.970785 223.293734 68.253734 
" clip-path="url(#pb273ce6c52)" style="fill: none; stroke: #000000; stroke-width: 2; stroke-linejoin: miter"/>
   </g>
   <g id="patch_11">
    <path d="M 212.475 57.435 
C 211.757948 58.152052 211.354683 59.125619 211.354683 60.139683 
C 211.354683 61.153747 211.757948 62.127315 212.475 62.844367 
C 213.192052 63.561418 214.165619 63.964683 215.179683 63.964683 
C 216.193747 63.964683 217.167315 63.561418 217.884367 62.844367 
" clip-path="url(#pb273ce6c52)" style="fill: none; stroke: #000000; stroke-width: 2; stroke-linejoin: miter"/>
   </g>
   <g id="patch_12">
    <path d="M 207.065633 52.025633 
C 206.348582 52.742685 205.945317 53.716253 205.945317 54.730317 
C 205.945317 55.744381 206.348582 56.717948 207.065633 57.435 
C 207.782685 58.152052 208.756253 58.555317 209.770317 58.555317 
C 210.784381 58.555317 211.757948 58.152052 212.475 57.435 
" clip-path="url(#pb273ce6c52)" style="fill: none; stroke: #000000; stroke-width: 2; stroke-linejoin: miter"/>
   </g>
   <g id="patch_13">
    <path d="M 201.656266 46.616266 
C 200.939215 47.333318 200.53595 48.306886 200.53595 49.32095 
C 200.53595 50.335014 200.939215 51.308582 201.656266 52.025633 
C 202.373318 52.742685 203.346886 53.14595 204.36095 53.14595 
C 205.375014 53.14595 206.348582 52.742685 207.065633 52.025633 
" clip-path="url(#pb273ce6c52)" style="fill: none; stroke: #000000; stroke-width: 2; stroke-linejoin: miter"/>
   </g>
   <g id="line2d_1">
    <path d="M 12.555 134.955 
L 91.680065 134.955 
" clip-path="url(#pb273ce6c52)" style="fill: none; stroke: #000000; stroke-width: 2; stroke-linecap: round"/>
   </g>
   <g id="line2d_2">
    <path d="M 257.355 134.955 
L 178.229935 134.955 
" clip-path="url(#pb273ce6c52)" style="fill: none; stroke: #000000; stroke-width: 2; stroke-linecap: round"/>
   </g>
   <g id="line2d_3">
    <path d="M 91.680065 117.645026 
L 91.680065 152.264974 
" clip-path="url(#pb273ce6c52)" style="fill: none; stroke: #000000; stroke-width: 2; stroke-linecap: round"/>
   </g>
   <g id="line2d_4">
    <path d="M 178.229935 117.645026 
L 178.229935 152.264974 
" clip-path="url(#pb273ce6c52)" style="fill: none; stroke: #000000; stroke-width: 2; stroke-linecap: round"/>
   </g>
   <g id="line2d_5">
    <path d="M 91.680065 117.645026 
L 132.201 117.645026 
M 132.201 109.995026 
L 132.201 125.295026 
M 137.709 109.995026 
L 137.709 125.295026 
M 137.709 117.645026 
L 178.229935 117.645026 
" clip-path="url(#pb273ce6c52)" style="fill: none; stroke: #000000; stroke-width: 2; stroke-linecap: round"/>
   </g>
   <g id="line2d_6">
    <path d="M 91.680065 152.264974 
L 119.655 152.264974 
M 150.255 152.264974 
L 178.229935 152.264974 
" clip-path="url(#pb273ce6c52)" style="fill: none; stroke: #000000; stroke-width: 2; stroke-linecap: round"/>
   </g>
   <g id="line2d_7">
    <path d="M 12.555 134.955 
L 43.155 104.355 
" clip-path="url(#pb273ce6c52)" style="fill: none; stroke: #000000; stroke-width: 2; stroke-linecap: round"/>
   </g>
   <g id="line2d_8">
    <path d="M 134.955 12.555 
L 104.355 43.155 
" clip-path="url(#pb273ce6c52)" style="fill: none; stroke: #000000; stroke-width: 2; stroke-linecap: round"/>
   </g>
   <g id="line2d_9">
    <path d="M 30.915 92.115 
L 55.395 116.595 
" clip-path="url(#pb273ce6c52)" style="fill: none; stroke: #000000; stroke-width: 2; stroke-linecap: round"/>
   </g>
   <g id="line2d_10">
    <path d="M 92.115 30.915 
L 116.595 55.395 
" clip-path="url(#pb273ce6c52)" style="fill: none; stroke: #000000; stroke-width: 2; stroke-linecap: round"/>
   </g>
   <g id="line2d_11">
    <path d="M 30.915 92.115 
L 59.567628 63.462372 
M 54.158261 58.053005 
L 64.976995 68.871739 
M 58.053005 54.158261 
L 68.871739 64.976995 
M 63.462372 59.567628 
L 92.115 30.915 
" clip-path="url(#pb273ce6c52)" style="fill: none; stroke: #000000; stroke-width: 2; stroke-linecap: round"/>
   </g>
   <g id="line2d_12">
    <path d="M 55.395 116.595 
L 75.176266 96.813734 
M 96.813734 75.176266 
L 116.595 55.395 
" clip-path="url(#pb273ce6c52)" style="fill: none; stroke: #000000; stroke-width: 2; stroke-linecap: round"/>
   </g>
   <g id="line2d_13">
    <path d="M 257.355 134.955 
L 226.755 104.355 
" clip-path="url(#pb273ce6c52)" style="fill: none; stroke: #000000; stroke-width: 2; stroke-linecap: round"/>
   </g>
   <g id="line2d_14">
    <path d="M 134.955 12.555 
L 165.555 43.155 
" clip-path="url(#pb273ce6c52)" style="fill: none; stroke: #000000; stroke-width: 2; stroke-linecap: round"/>
   </g>
   <g id="line2d_15">
    <path d="M 210.435 120.675 
L 243.075 88.035 
" clip-path="url(#pb273ce6c52)" style="fill: none; stroke: #000000; stroke-width: 2; stroke-linecap: round"/>
   </g>
   <g id="line2d_16">
    <path d="M 149.235 59.475 
L 181.875 26.835 
" clip-path="url(#pb273ce6c52)" style="fill: none; stroke: #000000; stroke-width: 2; stroke-linecap: round"/>
   </g>
   <g id="line2d_17">
    <path d="M 226.755 104.355 
L 198.102372 75.702372 
M 192.693005 81.111739 
L 203.511739 70.293005 
M 188.798261 77.216995 
L 199.616995 66.398261 
M 194.207628 71.807628 
L 165.555 43.155 
" clip-path="url(#pb273ce6c52)" style="fill: none; stroke: #000000; stroke-width: 2; stroke-linecap: round"/>
   </g>
   <g id="line2d_18">
    <path d="M 210.435 120.675 
L 179.835 90.075 
M 179.835 100.893734 
L 179.835 79.256266 
M 169.016266 90.075 
L 190.653734 90.075 
M 179.835 90.075 
L 149.235 59.475 
" clip-path="url(#pb273ce6c52)" style="fill: none; stroke: #000000; stroke-width: 2; stroke-linecap: round"/>
   </g>
   <g id="line2d_19">
    <path d="M 243.075 88.035 
L 223.293734 68.253734 
M 201.656266 46.616266 
L 181.875 26.835 
" clip-path="url(#pb273ce6c52)" style="fill: none; stroke: #000000; stroke-width: 2; stroke-linecap: round"/>
   </g>
   <g id="patch_14">
    <path d="M 12.555 137.25 
C 13.163641 137.25 13.747436 137.008184 14.17781 136.57781 
C 14.608184 136.147436 14.85 135.563641 14.85 134.955 
C 14.85 134.346359 14.608184 133.762564 14.17781 133.33219 
C 13.747436 132.901816 13.163641 132.66 12.555 132.66 
C 11.946359 132.66 11.362564 132.901816 10.93219 133.33219 
C 10.501816 133.762564 10.26 134.346359 10.26 134.955 
C 10.26 135.563641 10.501816 136.147436 10.93219 136.57781 
C 11.362564 137.008184 11.946359 137.25 12.555 137.25 
z
" clip-path="url(#pb273ce6c52)" style="stroke: #000000; stroke-width: 2; stroke-linejoin: miter"/>
   </g>
   <g id="patch_15">
    <path d="M 257.355 137.25 
C 257.963641 137.25 258.547436 137.008184 258.97781 136.57781 
C 259.408184 136.147436 259.65 135.563641 259.65 134.955 
C 259.65 134.346359 259.408184 133.762564 258.97781 133.33219 
C 258.547436 132.901816 257.963641 132.66 257.355 132.66 
C 256.746359 132.66 256.162564 132.901816 255.73219 133.33219 
C 255.301816 133.762564 255.06 134.346359 255.06 134.955 
C 255.06 135.563641 255.301816 136.147436 255.73219 136.57781 
C 256.162564 137.008184 256.746359 137.25 257.355 137.25 
z
" clip-path="url(#pb273ce6c52)" style="stroke: #000000; stroke-width: 2; stroke-linejoin: miter"/>
   </g>
   <g id="patch_16">
    <path d="M 134.955 14.85 
C 135.563641 14.85 136.147436 14.608184 136.57781 14.17781 
C 137.008184 13.747436 137.25 13.163641 137.25 12.555 
C 137.25 11.946359 137.008184 11.362564 136.57781 10.93219 
C 136.147436 10.501816 135.563641 10.26 134.955 10.26 
C 134.346359 10.26 133.762564 10.501816 133.33219 10.93219 
C 132.901816 11.362564 132.66 11.946359 132.66 12.555 
C 132.66 13.163641 132.901816 13.747436 133.33219 14.17781 
C 133.762564 14.608184 134.346359 14.85 134.955 14.85 
z
" clip-path="url(#pb273ce6c52)" style="stroke: #000000; stroke-width: 2; stroke-linejoin: miter"/>
   </g>
  </g>
 </g>
 <defs>
  <clipPath id="pb273ce6c52">
   <rect x="7.2" y="7.2" width="255.51" height="148.124974"/>
  </clipPath>
 </defs>
</svg>
