<?xml version="1.0" encoding="utf-8" standalone="no"?>
<!DOCTYPE svg PUBLIC "-//W3C//DTD SVG 1.1//EN"
  "http://www.w3.org/Graphics/SVG/1.1/DTD/svg11.dtd">
<svg xmlns:xlink="http://www.w3.org/1999/xlink" width="198.20974pt" height="198.20974pt" viewBox="0 0 198.20974 198.20974" xmlns="http://www.w3.org/2000/svg" version="1.1">
 <metadata>
  <rdf:RDF xmlns:dc="http://purl.org/dc/elements/1.1/" xmlns:cc="http://creativecommons.org/ns#" xmlns:rdf="http://www.w3.org/1999/02/22-rdf-syntax-ns#">
   <cc:Work>
    <dc:type rdf:resource="http://purl.org/dc/dcmitype/StillImage"/>
    <dc:date>2023-06-14T17:23:22.316279</dc:date>
    <dc:format>image/svg+xml</dc:format>
    <dc:creator>
     <cc:Agent>
      <dc:title>Matplotlib v3.5.2, https://matplotlib.org/</dc:title>
     </cc:Agent>
    </dc:creator>
   </cc:Work>
  </rdf:RDF>
 </metadata>
 <defs>
  <style type="text/css">*{stroke-linejoin: round; stroke-linecap: butt}</style>
 </defs>
 <g id="figure_1">
  <g id="patch_1">
   <path d="M 0 198.20974 
L 198.20974 198.20974 
L 198.20974 0 
L 0 0 
L 0 198.20974 
z
" style="fill: none"/>
  </g>
  <g id="axes_1">
   <g id="patch_2">
    <path d="M 50.420568 50.420568 
C 51.13762 49.703517 51.540885 48.729949 51.540885 47.715885 
C 51.540885 46.701821 51.13762 45.728253 50.420568 45.011201 
C 49.703517 44.29415 48.729949 43.890885 47.715885 43.890885 
C 46.701821 43.890885 45.728253 44.29415 45.011201 45.011201 
" clip-path="url(#p9df424b92a)" style="fill: none; stroke: #000000; stroke-width: 2; stroke-linejoin: miter"/>
   </g>
   <g id="patch_3">
    <path d="M 55.829935 55.829935 
C 56.546987 55.112883 56.950252 54.139316 56.950252 53.125252 
C 56.950252 52.111188 56.546987 51.13762 55.829935 50.420568 
C 55.112883 49.703517 54.139316 49.300252 53.125252 49.300252 
C 52.111188 49.300252 51.13762 49.703517 50.420568 50.420568 
" clip-path="url(#p9df424b92a)" style="fill: none; stroke: #000000; stroke-width: 2; stroke-linejoin: miter"/>
   </g>
   <g id="patch_4">
    <path d="M 61.239302 61.239302 
C 61.956353 60.52225 62.359618 59.548682 62.359618 58.534618 
C 62.359618 57.520554 61.956353 56.546987 61.239302 55.829935 
C 60.52225 55.112883 59.548682 54.709618 58.534618 54.709618 
C 57.520554 54.709618 56.546987 55.112883 55.829935 55.829935 
" clip-path="url(#p9df424b92a)" style="fill: none; stroke: #000000; stroke-width: 2; stroke-linejoin: miter"/>
   </g>
   <g id="patch_5">
    <path d="M 66.648669 66.648669 
C 67.36572 65.931617 67.768985 64.958049 67.768985 63.943985 
C 67.768985 62.929921 67.36572 61.956353 66.648669 61.239302 
C 65.931617 60.52225 64.958049 60.118985 63.943985 60.118985 
C 62.929921 60.118985 61.956353 60.52225 61.239302 61.239302 
" clip-path="url(#p9df424b92a)" style="fill: none; stroke: #000000; stroke-width: 2; stroke-linejoin: miter"/>
   </g>
   <g id="patch_6">
    <path d="M 156.444159 139.134185 
C 155.727107 139.851236 155.323842 140.824804 155.323842 141.838868 
C 155.323842 142.852932 155.727107 143.8265 156.444159 144.543552 
C 157.16121 145.260603 158.134778 145.663868 159.148842 145.663868 
C 160.162906 145.663868 161.136474 145.260603 161.853526 144.543552 
" clip-path="url(#p9df424b92a)" style="fill: none; stroke: #000000; stroke-width: 2; stroke-linejoin: miter"/>
   </g>
   <g id="patch_7">
    <path d="M 151.034792 133.724818 
C 150.31774 134.44187 149.914475 135.415437 149.914475 136.429501 
C 149.914475 137.443565 150.31774 138.417133 151.034792 139.134185 
C 151.751844 139.851236 152.725411 140.254501 153.739475 140.254501 
C 154.753539 140.254501 155.727107 139.851236 156.444159 139.134185 
" clip-path="url(#p9df424b92a)" style="fill: none; stroke: #000000; stroke-width: 2; stroke-linejoin: miter"/>
   </g>
   <g id="patch_8">
    <path d="M 145.625425 128.315451 
C 144.908374 129.032503 144.505109 130.006071 144.505109 131.020135 
C 144.505109 132.034199 144.908374 133.007766 145.625425 133.724818 
C 146.342477 134.44187 147.316045 134.845135 148.330109 134.845135 
C 149.344173 134.845135 150.31774 134.44187 151.034792 133.724818 
" clip-path="url(#p9df424b92a)" style="fill: none; stroke: #000000; stroke-width: 2; stroke-linejoin: miter"/>
   </g>
   <g id="patch_9">
    <path d="M 140.216058 122.906084 
C 139.499007 123.623136 139.095742 124.596704 139.095742 125.610768 
C 139.095742 126.624832 139.499007 127.5984 140.216058 128.315451 
C 140.93311 129.032503 141.906678 129.435768 142.920742 129.435768 
C 143.934806 129.435768 144.908374 129.032503 145.625425 128.315451 
" clip-path="url(#p9df424b92a)" style="fill: none; stroke: #000000; stroke-width: 2; stroke-linejoin: miter"/>
   </g>
   <g id="line2d_1">
    <path d="M 12.555 12.555 
L 45.011201 45.011201 
M 66.648669 66.648669 
L 99.10487 99.10487 
" clip-path="url(#p9df424b92a)" style="fill: none; stroke: #000000; stroke-width: 2; stroke-linecap: round"/>
   </g>
   <g id="line2d_2">
    <path d="M 185.65474 185.65474 
L 164.017273 164.017273 
" clip-path="url(#p9df424b92a)" style="fill: none; stroke: #000000; stroke-width: 2; stroke-linecap: round"/>
   </g>
   <g id="line2d_3">
    <path d="M 99.10487 99.10487 
L 120.742338 120.742338 
" clip-path="url(#p9df424b92a)" style="fill: none; stroke: #000000; stroke-width: 2; stroke-linecap: round"/>
   </g>
   <g id="line2d_4">
    <path d="M 155.362286 172.67226 
L 172.67226 155.362286 
" clip-path="url(#p9df424b92a)" style="fill: none; stroke: #000000; stroke-width: 2; stroke-linecap: round"/>
   </g>
   <g id="line2d_5">
    <path d="M 112.087351 129.397325 
L 129.397325 112.087351 
" clip-path="url(#p9df424b92a)" style="fill: none; stroke: #000000; stroke-width: 2; stroke-linecap: round"/>
   </g>
   <g id="line2d_6">
    <path d="M 155.362286 172.67226 
L 133.724818 151.034792 
M 133.724818 161.853526 
L 133.724818 140.216058 
M 122.906084 151.034792 
L 144.543552 151.034792 
M 133.724818 151.034792 
L 112.087351 129.397325 
" clip-path="url(#p9df424b92a)" style="fill: none; stroke: #000000; stroke-width: 2; stroke-linecap: round"/>
   </g>
   <g id="line2d_7">
    <path d="M 172.67226 155.362286 
L 161.853526 144.543552 
M 140.216058 122.906084 
L 129.397325 112.087351 
" clip-path="url(#p9df424b92a)" style="fill: none; stroke: #000000; stroke-width: 2; stroke-linecap: round"/>
   </g>
   <g id="patch_10">
    <path d="M 12.555 14.85 
C 13.163641 14.85 13.747436 14.608184 14.17781 14.17781 
C 14.608184 13.747436 14.85 13.163641 14.85 12.555 
C 14.85 11.946359 14.608184 11.362564 14.17781 10.93219 
C 13.747436 10.501816 13.163641 10.26 12.555 10.26 
C 11.946359 10.26 11.362564 10.501816 10.93219 10.93219 
C 10.501816 11.362564 10.26 11.946359 10.26 12.555 
C 10.26 13.163641 10.501816 13.747436 10.93219 14.17781 
C 11.362564 14.608184 11.946359 14.85 12.555 14.85 
z
" clip-path="url(#p9df424b92a)" style="stroke: #000000; stroke-width: 2; stroke-linejoin: miter"/>
   </g>
   <g id="patch_11">
    <path d="M 99.10487 101.39987 
C 99.713511 101.39987 100.297306 101.158054 100.72768 100.72768 
C 101.158054 100.297306 101.39987 99.713511 101.39987 99.10487 
C 101.39987 98.496229 101.158054 97.912434 100.72768 97.48206 
C 100.297306 97.051686 99.713511 96.80987 99.10487 96.80987 
C 98.496229 96.80987 97.912434 97.051686 97.48206 97.48206 
C 97.051686 97.912434 96.80987 98.496229 96.80987 99.10487 
C 96.80987 99.713511 97.051686 100.297306 97.48206 100.72768 
C 97.912434 101.158054 98.496229 101.39987 99.10487 101.39987 
z
" clip-path="url(#p9df424b92a)" style="stroke: #000000; stroke-width: 2; stroke-linejoin: miter"/>
   </g>
   <g id="patch_12">
    <path d="M 185.65474 187.94974 
C 186.263381 187.94974 186.847176 187.707924 187.27755 187.27755 
C 187.707924 186.847176 187.94974 186.263381 187.94974 185.65474 
C 187.94974 185.046099 187.707924 184.462304 187.27755 184.03193 
C 186.847176 183.601556 186.263381 183.35974 185.65474 183.35974 
C 185.046099 183.35974 184.462304 183.601556 184.03193 184.03193 
C 183.601556 184.462304 183.35974 185.046099 183.35974 185.65474 
C 183.35974 186.263381 183.601556 186.847176 184.03193 187.27755 
C 184.462304 187.707924 185.046099 187.94974 185.65474 187.94974 
z
" clip-path="url(#p9df424b92a)" style="stroke: #000000; stroke-width: 2; stroke-linejoin: miter"/>
   </g>
  </g>
 </g>
 <defs>
  <clipPath id="p9df424b92a">
   <rect x="7.2" y="7.2" width="183.80974" height="183.80974"/>
  </clipPath>
 </defs>
</svg>
