<?xml version="1.0" encoding="utf-8" standalone="no"?>
<!DOCTYPE svg PUBLIC "-//W3C//DTD SVG 1.1//EN"
  "http://www.w3.org/Graphics/SVG/1.1/DTD/svg11.dtd">
<svg xmlns:xlink="http://www.w3.org/1999/xlink" width="147.51pt" height="148.706509pt" viewBox="0 0 147.51 148.706509" xmlns="http://www.w3.org/2000/svg" version="1.1">
 <metadata>
  <rdf:RDF xmlns:dc="http://purl.org/dc/elements/1.1/" xmlns:cc="http://creativecommons.org/ns#" xmlns:rdf="http://www.w3.org/1999/02/22-rdf-syntax-ns#">
   <cc:Work>
    <dc:type rdf:resource="http://purl.org/dc/dcmitype/StillImage"/>
    <dc:date>2023-06-14T17:23:24.494803</dc:date>
    <dc:format>image/svg+xml</dc:format>
    <dc:creator>
     <cc:Agent>
      <dc:title>Matplotlib v3.5.2, https://matplotlib.org/</dc:title>
     </cc:Agent>
    </dc:creator>
   </cc:Work>
  </rdf:RDF>
 </metadata>
 <defs>
  <style type="text/css">*{stroke-linejoin: round; stroke-linecap: butt}</style>
 </defs>
 <g id="figure_1">
  <g id="patch_1">
   <path d="M 0 148.706509 
L 147.51 148.706509 
L 147.51 0 
L 0 0 
L 0 148.706509 
z
" style="fill: none"/>
  </g>
  <g id="axes_1">
   <g id="line2d_1">
    <path d="M 73.755 136.151509 
L 89.055 109.651132 
" clip-path="url(#pf20094e955)" style="fill: none; stroke: #000000; stroke-width: 2; stroke-linecap: round"/>
   </g>
   <g id="line2d_2">
    <path d="M 134.955 30.15 
L 119.655 56.650377 
" clip-path="url(#pf20094e955)" style="fill: none; stroke: #000000; stroke-width: 2; stroke-linecap: round"/>
   </g>
   <g id="line2d_3">
    <path d="M 78.454849 103.531132 
L 99.655151 115.771132 
" clip-path="url(#pf20094e955)" style="fill: none; stroke: #000000; stroke-width: 2; stroke-linecap: round"/>
   </g>
   <g id="line2d_4">
    <path d="M 109.054849 50.530377 
L 130.255151 62.770377 
" clip-path="url(#pf20094e955)" style="fill: none; stroke: #000000; stroke-width: 2; stroke-linecap: round"/>
   </g>
   <g id="line2d_5">
    <path d="M 78.454849 103.531132 
L 92.377849 79.415789 
M 85.752755 75.590789 
L 99.002943 83.240789 
M 88.506755 70.820721 
L 101.756943 78.470721 
M 95.131849 74.645721 
L 109.054849 50.530377 
" clip-path="url(#pf20094e955)" style="fill: none; stroke: #000000; stroke-width: 2; stroke-linecap: round"/>
   </g>
   <g id="line2d_6">
    <path d="M 99.655151 115.771132 
L 114.955151 89.270755 
M 104.505057 92.070849 
L 125.405245 86.47066 
M 112.155057 78.82066 
L 117.755245 99.720849 
M 114.955151 89.270755 
L 130.255151 62.770377 
" clip-path="url(#pf20094e955)" style="fill: none; stroke: #000000; stroke-width: 2; stroke-linecap: round"/>
   </g>
   <g id="line2d_7">
    <path d="M 73.755 136.151509 
L 58.455 109.651132 
" clip-path="url(#pf20094e955)" style="fill: none; stroke: #000000; stroke-width: 2; stroke-linecap: round"/>
   </g>
   <g id="line2d_8">
    <path d="M 12.555 30.15 
L 27.855 56.650377 
" clip-path="url(#pf20094e955)" style="fill: none; stroke: #000000; stroke-width: 2; stroke-linecap: round"/>
   </g>
   <g id="line2d_9">
    <path d="M 47.854849 115.771132 
L 69.055151 103.531132 
" clip-path="url(#pf20094e955)" style="fill: none; stroke: #000000; stroke-width: 2; stroke-linecap: round"/>
   </g>
   <g id="line2d_10">
    <path d="M 17.254849 62.770377 
L 38.455151 50.530377 
" clip-path="url(#pf20094e955)" style="fill: none; stroke: #000000; stroke-width: 2; stroke-linecap: round"/>
   </g>
   <g id="line2d_11">
    <path d="M 47.854849 115.771132 
L 33.931849 91.655789 
M 27.306755 95.480789 
L 40.556943 87.830789 
M 24.552755 90.710721 
L 37.802943 83.060721 
M 31.177849 86.885721 
L 17.254849 62.770377 
" clip-path="url(#pf20094e955)" style="fill: none; stroke: #000000; stroke-width: 2; stroke-linecap: round"/>
   </g>
   <g id="line2d_12">
    <path d="M 69.055151 103.531132 
L 53.755151 77.030755 
M 50.955057 87.480849 
L 56.555245 66.58066 
M 43.305057 74.23066 
L 64.205245 79.830849 
M 53.755151 77.030755 
L 38.455151 50.530377 
" clip-path="url(#pf20094e955)" style="fill: none; stroke: #000000; stroke-width: 2; stroke-linecap: round"/>
   </g>
   <g id="line2d_13">
    <path d="M 134.955 30.15 
L 104.355 30.15 
" clip-path="url(#pf20094e955)" style="fill: none; stroke: #000000; stroke-width: 2; stroke-linecap: round"/>
   </g>
   <g id="line2d_14">
    <path d="M 12.555 30.15 
L 43.155 30.15 
" clip-path="url(#pf20094e955)" style="fill: none; stroke: #000000; stroke-width: 2; stroke-linecap: round"/>
   </g>
   <g id="line2d_15">
    <path d="M 104.355 42.39 
L 104.355 17.91 
" clip-path="url(#pf20094e955)" style="fill: none; stroke: #000000; stroke-width: 2; stroke-linecap: round"/>
   </g>
   <g id="line2d_16">
    <path d="M 43.155 42.39 
L 43.155 17.91 
" clip-path="url(#pf20094e955)" style="fill: none; stroke: #000000; stroke-width: 2; stroke-linecap: round"/>
   </g>
   <g id="line2d_17">
    <path d="M 104.355 42.39 
L 76.509 42.39 
M 76.509 50.04 
L 76.509 34.74 
M 71.001 50.04 
L 71.001 34.74 
M 71.001 42.39 
L 43.155 42.39 
" clip-path="url(#pf20094e955)" style="fill: none; stroke: #000000; stroke-width: 2; stroke-linecap: round"/>
   </g>
   <g id="line2d_18">
    <path d="M 104.355 17.91 
L 73.755 17.91 
M 81.405 25.56 
L 66.105 10.26 
M 66.105 25.56 
L 81.405 10.26 
M 73.755 17.91 
L 43.155 17.91 
" clip-path="url(#pf20094e955)" style="fill: none; stroke: #000000; stroke-width: 2; stroke-linecap: round"/>
   </g>
   <g id="patch_2">
    <path d="M 73.755 138.446509 
C 74.363641 138.446509 74.947436 138.204694 75.37781 137.774319 
C 75.808184 137.343945 76.05 136.760151 76.05 136.151509 
C 76.05 135.542868 75.808184 134.959074 75.37781 134.528699 
C 74.947436 134.098325 74.363641 133.856509 73.755 133.856509 
C 73.146359 133.856509 72.562564 134.098325 72.13219 134.528699 
C 71.701816 134.959074 71.46 135.542868 71.46 136.151509 
C 71.46 136.760151 71.701816 137.343945 72.13219 137.774319 
C 72.562564 138.204694 73.146359 138.446509 73.755 138.446509 
z
" clip-path="url(#pf20094e955)" style="stroke: #000000; stroke-width: 2; stroke-linejoin: miter"/>
   </g>
   <g id="patch_3">
    <path d="M 134.955 32.445 
C 135.563641 32.445 136.147436 32.203184 136.57781 31.77281 
C 137.008184 31.342436 137.25 30.758641 137.25 30.15 
C 137.25 29.541359 137.008184 28.957564 136.57781 28.52719 
C 136.147436 28.096816 135.563641 27.855 134.955 27.855 
C 134.346359 27.855 133.762564 28.096816 133.33219 28.52719 
C 132.901816 28.957564 132.66 29.541359 132.66 30.15 
C 132.66 30.758641 132.901816 31.342436 133.33219 31.77281 
C 133.762564 32.203184 134.346359 32.445 134.955 32.445 
z
" clip-path="url(#pf20094e955)" style="stroke: #000000; stroke-width: 2; stroke-linejoin: miter"/>
   </g>
   <g id="patch_4">
    <path d="M 12.555 32.445 
C 13.163641 32.445 13.747436 32.203184 14.17781 31.77281 
C 14.608184 31.342436 14.85 30.758641 14.85 30.15 
C 14.85 29.541359 14.608184 28.957564 14.17781 28.52719 
C 13.747436 28.096816 13.163641 27.855 12.555 27.855 
C 11.946359 27.855 11.362564 28.096816 10.93219 28.52719 
C 10.501816 28.957564 10.26 29.541359 10.26 30.15 
C 10.26 30.758641 10.501816 31.342436 10.93219 31.77281 
C 11.362564 32.203184 11.946359 32.445 12.555 32.445 
z
" clip-path="url(#pf20094e955)" style="stroke: #000000; stroke-width: 2; stroke-linejoin: miter"/>
   </g>
  </g>
 </g>
 <defs>
  <clipPath id="pf20094e955">
   <rect x="7.2" y="7.2" width="133.11" height="134.306509"/>
  </clipPath>
 </defs>
</svg>
