<?xml version="1.0" encoding="utf-8" standalone="no"?>
<!DOCTYPE svg PUBLIC "-//W3C//DTD SVG 1.1//EN"
  "http://www.w3.org/Graphics/SVG/1.1/DTD/svg11.dtd">
<svg xmlns:xlink="http://www.w3.org/1999/xlink" width="147.51pt" height="145.136509pt" viewBox="0 0 147.51 145.136509" xmlns="http://www.w3.org/2000/svg" version="1.1">
 <metadata>
  <rdf:RDF xmlns:dc="http://purl.org/dc/elements/1.1/" xmlns:cc="http://creativecommons.org/ns#" xmlns:rdf="http://www.w3.org/1999/02/22-rdf-syntax-ns#">
   <cc:Work>
    <dc:type rdf:resource="http://purl.org/dc/dcmitype/StillImage"/>
    <dc:date>2023-06-14T17:23:25.104056</dc:date>
    <dc:format>image/svg+xml</dc:format>
    <dc:creator>
     <cc:Agent>
      <dc:title>Matplotlib v3.5.2, https://matplotlib.org/</dc:title>
     </cc:Agent>
    </dc:creator>
   </cc:Work>
  </rdf:RDF>
 </metadata>
 <defs>
  <style type="text/css">*{stroke-linejoin: round; stroke-linecap: butt}</style>
 </defs>
 <g id="figure_1">
  <g id="patch_1">
   <path d="M 0 145.136509 
L 147.51 145.136509 
L 147.51 0 
L 0 0 
L 0 145.136509 
z
" style="fill: none"/>
  </g>
  <g id="axes_1">
   <g id="patch_2">
    <path d="M 111.130151 92.325849 
C 110.251946 91.818817 109.207179 91.681271 108.227668 91.94373 
C 107.248157 92.206189 106.412136 92.847691 105.905104 93.725896 
C 105.398072 94.604101 105.260526 95.648868 105.522985 96.628379 
C 105.785444 97.60789 106.426946 98.443911 107.305151 98.950943 
" clip-path="url(#p62f2625bd9)" style="fill: none; stroke: #000000; stroke-width: 2; stroke-linejoin: miter"/>
   </g>
   <g id="patch_3">
    <path d="M 114.955151 85.700755 
C 114.076946 85.193723 113.032179 85.056177 112.052668 85.318636 
C 111.073157 85.581095 110.237136 86.222597 109.730104 87.100802 
C 109.223072 87.979007 109.085526 89.023774 109.347985 90.003285 
C 109.610444 90.982795 110.251946 91.818817 111.130151 92.325849 
" clip-path="url(#p62f2625bd9)" style="fill: none; stroke: #000000; stroke-width: 2; stroke-linejoin: miter"/>
   </g>
   <g id="patch_4">
    <path d="M 118.780151 79.07566 
C 117.901946 78.568628 116.857179 78.431082 115.877668 78.693541 
C 114.898157 78.956 114.062136 79.597502 113.555104 80.475708 
C 113.048072 81.353913 112.910526 82.39868 113.172985 83.37819 
C 113.435444 84.357701 114.076946 85.193723 114.955151 85.700755 
" clip-path="url(#p62f2625bd9)" style="fill: none; stroke: #000000; stroke-width: 2; stroke-linejoin: miter"/>
   </g>
   <g id="patch_5">
    <path d="M 122.605151 72.450566 
C 121.726946 71.943534 120.682179 71.805988 119.702668 72.068447 
C 118.723157 72.330906 117.887136 72.972408 117.380104 73.850613 
C 116.873072 74.728818 116.735526 75.773585 116.997985 76.753096 
C 117.260444 77.732607 117.901946 78.568628 118.780151 79.07566 
" clip-path="url(#p62f2625bd9)" style="fill: none; stroke: #000000; stroke-width: 2; stroke-linejoin: miter"/>
   </g>
   <g id="patch_6">
    <path d="M 57.580151 80.085849 
C 56.701946 80.592881 56.060444 81.428903 55.797985 82.408413 
C 55.535526 83.387924 55.673072 84.432691 56.180104 85.310896 
C 56.687136 86.189101 57.523157 86.830603 58.502668 87.093063 
C 59.482179 87.355522 60.526946 87.217975 61.405151 86.710943 
" clip-path="url(#p62f2625bd9)" style="fill: none; stroke: #000000; stroke-width: 2; stroke-linejoin: miter"/>
   </g>
   <g id="patch_7">
    <path d="M 53.755151 73.460755 
C 52.876946 73.967787 52.235444 74.803808 51.972985 75.783319 
C 51.710526 76.76283 51.848072 77.807597 52.355104 78.685802 
C 52.862136 79.564007 53.698157 80.205509 54.677668 80.467968 
C 55.657179 80.730427 56.701946 80.592881 57.580151 80.085849 
" clip-path="url(#p62f2625bd9)" style="fill: none; stroke: #000000; stroke-width: 2; stroke-linejoin: miter"/>
   </g>
   <g id="patch_8">
    <path d="M 49.930151 66.83566 
C 49.051946 67.342692 48.410444 68.178714 48.147985 69.158225 
C 47.885526 70.137735 48.023072 71.182502 48.530104 72.060708 
C 49.037136 72.938913 49.873157 73.580415 50.852668 73.842874 
C 51.832179 74.105333 52.876946 73.967787 53.755151 73.460755 
" clip-path="url(#p62f2625bd9)" style="fill: none; stroke: #000000; stroke-width: 2; stroke-linejoin: miter"/>
   </g>
   <g id="patch_9">
    <path d="M 46.105151 60.210566 
C 45.226946 60.717598 44.585444 61.55362 44.322985 62.53313 
C 44.060526 63.512641 44.198072 64.557408 44.705104 65.435613 
C 45.212136 66.313818 46.048157 66.95532 47.027668 67.217779 
C 48.007179 67.480239 49.051946 67.342692 49.930151 66.83566 
" clip-path="url(#p62f2625bd9)" style="fill: none; stroke: #000000; stroke-width: 2; stroke-linejoin: miter"/>
   </g>
   <g id="patch_10">
    <path d="M 81.405 10.26 
C 81.405 11.274064 81.808265 12.247632 82.525317 12.964683 
C 83.242368 13.681735 84.215936 14.085 85.23 14.085 
C 86.244064 14.085 87.217632 13.681735 87.934683 12.964683 
C 88.651735 12.247632 89.055 11.274064 89.055 10.26 
" clip-path="url(#p62f2625bd9)" style="fill: none; stroke: #000000; stroke-width: 2; stroke-linejoin: miter"/>
   </g>
   <g id="patch_11">
    <path d="M 73.755 10.26 
C 73.755 11.274064 74.158265 12.247632 74.875317 12.964683 
C 75.592368 13.681735 76.565936 14.085 77.58 14.085 
C 78.594064 14.085 79.567632 13.681735 80.284683 12.964683 
C 81.001735 12.247632 81.405 11.274064 81.405 10.26 
" clip-path="url(#p62f2625bd9)" style="fill: none; stroke: #000000; stroke-width: 2; stroke-linejoin: miter"/>
   </g>
   <g id="patch_12">
    <path d="M 66.105 10.26 
C 66.105 11.274064 66.508265 12.247632 67.225317 12.964683 
C 67.942368 13.681735 68.915936 14.085 69.93 14.085 
C 70.944064 14.085 71.917632 13.681735 72.634683 12.964683 
C 73.351735 12.247632 73.755 11.274064 73.755 10.26 
" clip-path="url(#p62f2625bd9)" style="fill: none; stroke: #000000; stroke-width: 2; stroke-linejoin: miter"/>
   </g>
   <g id="patch_13">
    <path d="M 58.455 10.26 
C 58.455 11.274064 58.858265 12.247632 59.575317 12.964683 
C 60.292368 13.681735 61.265936 14.085 62.28 14.085 
C 63.294064 14.085 64.267632 13.681735 64.984683 12.964683 
C 65.701735 12.247632 66.105 11.274064 66.105 10.26 
" clip-path="url(#p62f2625bd9)" style="fill: none; stroke: #000000; stroke-width: 2; stroke-linejoin: miter"/>
   </g>
   <g id="line2d_1">
    <path d="M 73.755 132.581509 
L 89.055 106.081132 
" clip-path="url(#p62f2625bd9)" style="fill: none; stroke: #000000; stroke-width: 2; stroke-linecap: round"/>
   </g>
   <g id="line2d_2">
    <path d="M 134.955 26.58 
L 119.655 53.080377 
" clip-path="url(#p62f2625bd9)" style="fill: none; stroke: #000000; stroke-width: 2; stroke-linecap: round"/>
   </g>
   <g id="line2d_3">
    <path d="M 78.454849 99.961132 
L 99.655151 112.201132 
" clip-path="url(#p62f2625bd9)" style="fill: none; stroke: #000000; stroke-width: 2; stroke-linecap: round"/>
   </g>
   <g id="line2d_4">
    <path d="M 109.054849 46.960377 
L 130.255151 59.200377 
" clip-path="url(#p62f2625bd9)" style="fill: none; stroke: #000000; stroke-width: 2; stroke-linecap: round"/>
   </g>
   <g id="line2d_5">
    <path d="M 78.454849 99.961132 
L 92.377849 75.845789 
M 85.752755 72.020789 
L 99.002943 79.670789 
M 88.506755 67.250721 
L 101.756943 74.900721 
M 95.131849 71.075721 
L 109.054849 46.960377 
" clip-path="url(#p62f2625bd9)" style="fill: none; stroke: #000000; stroke-width: 2; stroke-linecap: round"/>
   </g>
   <g id="line2d_6">
    <path d="M 99.655151 112.201132 
L 107.305151 98.950943 
M 122.605151 72.450566 
L 130.255151 59.200377 
" clip-path="url(#p62f2625bd9)" style="fill: none; stroke: #000000; stroke-width: 2; stroke-linecap: round"/>
   </g>
   <g id="line2d_7">
    <path d="M 73.755 132.581509 
L 58.455 106.081132 
" clip-path="url(#p62f2625bd9)" style="fill: none; stroke: #000000; stroke-width: 2; stroke-linecap: round"/>
   </g>
   <g id="line2d_8">
    <path d="M 12.555 26.58 
L 27.855 53.080377 
" clip-path="url(#p62f2625bd9)" style="fill: none; stroke: #000000; stroke-width: 2; stroke-linecap: round"/>
   </g>
   <g id="line2d_9">
    <path d="M 47.854849 112.201132 
L 69.055151 99.961132 
" clip-path="url(#p62f2625bd9)" style="fill: none; stroke: #000000; stroke-width: 2; stroke-linecap: round"/>
   </g>
   <g id="line2d_10">
    <path d="M 17.254849 59.200377 
L 38.455151 46.960377 
" clip-path="url(#p62f2625bd9)" style="fill: none; stroke: #000000; stroke-width: 2; stroke-linecap: round"/>
   </g>
   <g id="line2d_11">
    <path d="M 47.854849 112.201132 
L 32.554849 85.700755 
M 29.754755 96.150849 
L 35.354943 75.25066 
M 22.104755 82.90066 
L 43.004943 88.500849 
M 32.554849 85.700755 
L 17.254849 59.200377 
" clip-path="url(#p62f2625bd9)" style="fill: none; stroke: #000000; stroke-width: 2; stroke-linecap: round"/>
   </g>
   <g id="line2d_12">
    <path d="M 69.055151 99.961132 
L 61.405151 86.710943 
M 46.105151 60.210566 
L 38.455151 46.960377 
" clip-path="url(#p62f2625bd9)" style="fill: none; stroke: #000000; stroke-width: 2; stroke-linecap: round"/>
   </g>
   <g id="line2d_13">
    <path d="M 134.955 26.58 
L 104.355 26.58 
" clip-path="url(#p62f2625bd9)" style="fill: none; stroke: #000000; stroke-width: 2; stroke-linecap: round"/>
   </g>
   <g id="line2d_14">
    <path d="M 12.555 26.58 
L 43.155 26.58 
" clip-path="url(#p62f2625bd9)" style="fill: none; stroke: #000000; stroke-width: 2; stroke-linecap: round"/>
   </g>
   <g id="line2d_15">
    <path d="M 104.355 42.9 
L 104.355 10.26 
" clip-path="url(#p62f2625bd9)" style="fill: none; stroke: #000000; stroke-width: 2; stroke-linecap: round"/>
   </g>
   <g id="line2d_16">
    <path d="M 43.155 42.9 
L 43.155 10.26 
" clip-path="url(#p62f2625bd9)" style="fill: none; stroke: #000000; stroke-width: 2; stroke-linecap: round"/>
   </g>
   <g id="line2d_17">
    <path d="M 104.355 26.58 
L 76.509 26.58 
M 76.509 34.23 
L 76.509 18.93 
M 71.001 34.23 
L 71.001 18.93 
M 71.001 26.58 
L 43.155 26.58 
" clip-path="url(#p62f2625bd9)" style="fill: none; stroke: #000000; stroke-width: 2; stroke-linecap: round"/>
   </g>
   <g id="line2d_18">
    <path d="M 104.355 42.9 
L 73.755 42.9 
M 81.405 50.55 
L 66.105 35.25 
M 66.105 50.55 
L 81.405 35.25 
M 73.755 42.9 
L 43.155 42.9 
" clip-path="url(#p62f2625bd9)" style="fill: none; stroke: #000000; stroke-width: 2; stroke-linecap: round"/>
   </g>
   <g id="line2d_19">
    <path d="M 104.355 10.26 
L 89.055 10.26 
M 58.455 10.26 
L 43.155 10.26 
" clip-path="url(#p62f2625bd9)" style="fill: none; stroke: #000000; stroke-width: 2; stroke-linecap: round"/>
   </g>
   <g id="patch_14">
    <path d="M 73.755 134.876509 
C 74.363641 134.876509 74.947436 134.634694 75.37781 134.204319 
C 75.808184 133.773945 76.05 133.190151 76.05 132.581509 
C 76.05 131.972868 75.808184 131.389074 75.37781 130.958699 
C 74.947436 130.528325 74.363641 130.286509 73.755 130.286509 
C 73.146359 130.286509 72.562564 130.528325 72.13219 130.958699 
C 71.701816 131.389074 71.46 131.972868 71.46 132.581509 
C 71.46 133.190151 71.701816 133.773945 72.13219 134.204319 
C 72.562564 134.634694 73.146359 134.876509 73.755 134.876509 
z
" clip-path="url(#p62f2625bd9)" style="stroke: #000000; stroke-width: 2; stroke-linejoin: miter"/>
   </g>
   <g id="patch_15">
    <path d="M 134.955 28.875 
C 135.563641 28.875 136.147436 28.633184 136.57781 28.20281 
C 137.008184 27.772436 137.25 27.188641 137.25 26.58 
C 137.25 25.971359 137.008184 25.387564 136.57781 24.95719 
C 136.147436 24.526816 135.563641 24.285 134.955 24.285 
C 134.346359 24.285 133.762564 24.526816 133.33219 24.95719 
C 132.901816 25.387564 132.66 25.971359 132.66 26.58 
C 132.66 27.188641 132.901816 27.772436 133.33219 28.20281 
C 133.762564 28.633184 134.346359 28.875 134.955 28.875 
z
" clip-path="url(#p62f2625bd9)" style="stroke: #000000; stroke-width: 2; stroke-linejoin: miter"/>
   </g>
   <g id="patch_16">
    <path d="M 12.555 28.875 
C 13.163641 28.875 13.747436 28.633184 14.17781 28.20281 
C 14.608184 27.772436 14.85 27.188641 14.85 26.58 
C 14.85 25.971359 14.608184 25.387564 14.17781 24.95719 
C 13.747436 24.526816 13.163641 24.285 12.555 24.285 
C 11.946359 24.285 11.362564 24.526816 10.93219 24.95719 
C 10.501816 25.387564 10.26 25.971359 10.26 26.58 
C 10.26 27.188641 10.501816 27.772436 10.93219 28.20281 
C 11.362564 28.633184 11.946359 28.875 12.555 28.875 
z
" clip-path="url(#p62f2625bd9)" style="stroke: #000000; stroke-width: 2; stroke-linejoin: miter"/>
   </g>
  </g>
 </g>
 <defs>
  <clipPath id="p62f2625bd9">
   <rect x="7.2" y="7.2" width="133.11" height="130.736509"/>
  </clipPath>
 </defs>
</svg>
