<?xml version="1.0" encoding="utf-8" standalone="no"?>
<!DOCTYPE svg PUBLIC "-//W3C//DTD SVG 1.1//EN"
  "http://www.w3.org/Graphics/SVG/1.1/DTD/svg11.dtd">
<svg xmlns:xlink="http://www.w3.org/1999/xlink" width="147.51pt" height="131.111509pt" viewBox="0 0 147.51 131.111509" xmlns="http://www.w3.org/2000/svg" version="1.1">
 <metadata>
  <rdf:RDF xmlns:dc="http://purl.org/dc/elements/1.1/" xmlns:cc="http://creativecommons.org/ns#" xmlns:rdf="http://www.w3.org/1999/02/22-rdf-syntax-ns#">
   <cc:Work>
    <dc:type rdf:resource="http://purl.org/dc/dcmitype/StillImage"/>
    <dc:date>2023-06-14T17:23:22.753170</dc:date>
    <dc:format>image/svg+xml</dc:format>
    <dc:creator>
     <cc:Agent>
      <dc:title>Matplotlib v3.5.2, https://matplotlib.org/</dc:title>
     </cc:Agent>
    </dc:creator>
   </cc:Work>
  </rdf:RDF>
 </metadata>
 <defs>
  <style type="text/css">*{stroke-linejoin: round; stroke-linecap: butt}</style>
 </defs>
 <g id="figure_1">
  <g id="patch_1">
   <path d="M 0 131.111509 
L 147.51 131.111509 
L 147.51 0 
L 0 0 
L 0 131.111509 
z
" style="fill: none"/>
  </g>
  <g id="axes_1">
   <g id="patch_2">
    <path d="M 81.405 12.555 
C 81.405 13.569064 81.808265 14.542632 82.525317 15.259683 
C 83.242368 15.976735 84.215936 16.38 85.23 16.38 
C 86.244064 16.38 87.217632 15.976735 87.934683 15.259683 
C 88.651735 14.542632 89.055 13.569064 89.055 12.555 
" clip-path="url(#p05557cc560)" style="fill: none; stroke: #000000; stroke-width: 2; stroke-linejoin: miter"/>
   </g>
   <g id="patch_3">
    <path d="M 73.755 12.555 
C 73.755 13.569064 74.158265 14.542632 74.875317 15.259683 
C 75.592368 15.976735 76.565936 16.38 77.58 16.38 
C 78.594064 16.38 79.567632 15.976735 80.284683 15.259683 
C 81.001735 14.542632 81.405 13.569064 81.405 12.555 
" clip-path="url(#p05557cc560)" style="fill: none; stroke: #000000; stroke-width: 2; stroke-linejoin: miter"/>
   </g>
   <g id="patch_4">
    <path d="M 66.105 12.555 
C 66.105 13.569064 66.508265 14.542632 67.225317 15.259683 
C 67.942368 15.976735 68.915936 16.38 69.93 16.38 
C 70.944064 16.38 71.917632 15.976735 72.634683 15.259683 
C 73.351735 14.542632 73.755 13.569064 73.755 12.555 
" clip-path="url(#p05557cc560)" style="fill: none; stroke: #000000; stroke-width: 2; stroke-linejoin: miter"/>
   </g>
   <g id="patch_5">
    <path d="M 58.455 12.555 
C 58.455 13.569064 58.858265 14.542632 59.575317 15.259683 
C 60.292368 15.976735 61.265936 16.38 62.28 16.38 
C 63.294064 16.38 64.267632 15.976735 64.984683 15.259683 
C 65.701735 14.542632 66.105 13.569064 66.105 12.555 
" clip-path="url(#p05557cc560)" style="fill: none; stroke: #000000; stroke-width: 2; stroke-linejoin: miter"/>
   </g>
   <g id="line2d_1">
    <path d="M 73.755 118.556509 
L 102.978 67.940789 
M 96.352906 64.115789 
L 109.603094 71.765789 
M 99.106906 59.345721 
L 112.357094 66.995721 
M 105.732 63.170721 
L 134.955 12.555 
" clip-path="url(#p05557cc560)" style="fill: none; stroke: #000000; stroke-width: 2; stroke-linecap: round"/>
   </g>
   <g id="line2d_2">
    <path d="M 73.755 118.556509 
L 43.155 65.555755 
M 40.354906 76.005849 
L 45.955094 55.10566 
M 32.704906 62.75566 
L 53.605094 68.355849 
M 43.155 65.555755 
L 12.555 12.555 
" clip-path="url(#p05557cc560)" style="fill: none; stroke: #000000; stroke-width: 2; stroke-linecap: round"/>
   </g>
   <g id="line2d_3">
    <path d="M 134.955 12.555 
L 89.055 12.555 
M 58.455 12.555 
L 12.555 12.555 
" clip-path="url(#p05557cc560)" style="fill: none; stroke: #000000; stroke-width: 2; stroke-linecap: round"/>
   </g>
   <g id="patch_6">
    <path d="M 73.755 120.851509 
C 74.363641 120.851509 74.947436 120.609694 75.37781 120.179319 
C 75.808184 119.748945 76.05 119.165151 76.05 118.556509 
C 76.05 117.947868 75.808184 117.364074 75.37781 116.933699 
C 74.947436 116.503325 74.363641 116.261509 73.755 116.261509 
C 73.146359 116.261509 72.562564 116.503325 72.13219 116.933699 
C 71.701816 117.364074 71.46 117.947868 71.46 118.556509 
C 71.46 119.165151 71.701816 119.748945 72.13219 120.179319 
C 72.562564 120.609694 73.146359 120.851509 73.755 120.851509 
z
" clip-path="url(#p05557cc560)" style="stroke: #000000; stroke-width: 2; stroke-linejoin: miter"/>
   </g>
   <g id="patch_7">
    <path d="M 134.955 14.85 
C 135.563641 14.85 136.147436 14.608184 136.57781 14.17781 
C 137.008184 13.747436 137.25 13.163641 137.25 12.555 
C 137.25 11.946359 137.008184 11.362564 136.57781 10.93219 
C 136.147436 10.501816 135.563641 10.26 134.955 10.26 
C 134.346359 10.26 133.762564 10.501816 133.33219 10.93219 
C 132.901816 11.362564 132.66 11.946359 132.66 12.555 
C 132.66 13.163641 132.901816 13.747436 133.33219 14.17781 
C 133.762564 14.608184 134.346359 14.85 134.955 14.85 
z
" clip-path="url(#p05557cc560)" style="stroke: #000000; stroke-width: 2; stroke-linejoin: miter"/>
   </g>
   <g id="patch_8">
    <path d="M 12.555 14.85 
C 13.163641 14.85 13.747436 14.608184 14.17781 14.17781 
C 14.608184 13.747436 14.85 13.163641 14.85 12.555 
C 14.85 11.946359 14.608184 11.362564 14.17781 10.93219 
C 13.747436 10.501816 13.163641 10.26 12.555 10.26 
C 11.946359 10.26 11.362564 10.501816 10.93219 10.93219 
C 10.501816 11.362564 10.26 11.946359 10.26 12.555 
C 10.26 13.163641 10.501816 13.747436 10.93219 14.17781 
C 11.362564 14.608184 11.946359 14.85 12.555 14.85 
z
" clip-path="url(#p05557cc560)" style="stroke: #000000; stroke-width: 2; stroke-linejoin: miter"/>
   </g>
  </g>
 </g>
 <defs>
  <clipPath id="p05557cc560">
   <rect x="7.2" y="7.2" width="133.11" height="116.711509"/>
  </clipPath>
 </defs>
</svg>
