<?xml version="1.0" encoding="utf-8" standalone="no"?>
<!DOCTYPE svg PUBLIC "-//W3C//DTD SVG 1.1//EN"
  "http://www.w3.org/Graphics/SVG/1.1/DTD/svg11.dtd">
<svg xmlns:xlink="http://www.w3.org/1999/xlink" width="198.20974pt" height="198.20974pt" viewBox="0 0 198.20974 198.20974" xmlns="http://www.w3.org/2000/svg" version="1.1">
 <metadata>
  <rdf:RDF xmlns:dc="http://purl.org/dc/elements/1.1/" xmlns:cc="http://creativecommons.org/ns#" xmlns:rdf="http://www.w3.org/1999/02/22-rdf-syntax-ns#">
   <cc:Work>
    <dc:type rdf:resource="http://purl.org/dc/dcmitype/StillImage"/>
    <dc:date>2023-06-14T17:23:22.253470</dc:date>
    <dc:format>image/svg+xml</dc:format>
    <dc:creator>
     <cc:Agent>
      <dc:title>Matplotlib v3.5.2, https://matplotlib.org/</dc:title>
     </cc:Agent>
    </dc:creator>
   </cc:Work>
  </rdf:RDF>
 </metadata>
 <defs>
  <style type="text/css">*{stroke-linejoin: round; stroke-linecap: butt}</style>
 </defs>
 <g id="figure_1">
  <g id="patch_1">
   <path d="M 0 198.20974 
L 198.20974 198.20974 
L 198.20974 0 
L 0 0 
L 0 198.20974 
z
" style="fill: none"/>
  </g>
  <g id="axes_1">
   <g id="patch_2">
    <path d="M 159.329155 136.249189 
C 158.612103 136.966241 158.208838 137.939809 158.208838 138.953873 
C 158.208838 139.967937 158.612103 140.941505 159.329155 141.658556 
C 160.046206 142.375608 161.019774 142.778873 162.033838 142.778873 
C 163.047902 142.778873 164.02147 142.375608 164.738521 141.658556 
" clip-path="url(#p2b6e712f2f)" style="fill: none; stroke: #000000; stroke-width: 2; stroke-linejoin: miter"/>
   </g>
   <g id="patch_3">
    <path d="M 153.919788 130.839822 
C 153.202736 131.556874 152.799471 132.530442 152.799471 133.544506 
C 152.799471 134.55857 153.202736 135.532138 153.919788 136.249189 
C 154.636839 136.966241 155.610407 137.369506 156.624471 137.369506 
C 157.638535 137.369506 158.612103 136.966241 159.329155 136.249189 
" clip-path="url(#p2b6e712f2f)" style="fill: none; stroke: #000000; stroke-width: 2; stroke-linejoin: miter"/>
   </g>
   <g id="patch_4">
    <path d="M 148.510421 125.430455 
C 147.793369 126.147507 147.390104 127.121075 147.390104 128.135139 
C 147.390104 129.149203 147.793369 130.122771 148.510421 130.839822 
C 149.227472 131.556874 150.20104 131.960139 151.215104 131.960139 
C 152.229168 131.960139 153.202736 131.556874 153.919788 130.839822 
" clip-path="url(#p2b6e712f2f)" style="fill: none; stroke: #000000; stroke-width: 2; stroke-linejoin: miter"/>
   </g>
   <g id="patch_5">
    <path d="M 143.101054 120.021089 
C 142.384002 120.73814 141.980737 121.711708 141.980737 122.725772 
C 141.980737 123.739836 142.384002 124.713404 143.101054 125.430455 
C 143.818105 126.147507 144.791673 126.550772 145.805737 126.550772 
C 146.819801 126.550772 147.793369 126.147507 148.510421 125.430455 
" clip-path="url(#p2b6e712f2f)" style="fill: none; stroke: #000000; stroke-width: 2; stroke-linejoin: miter"/>
   </g>
   <g id="line2d_1">
    <path d="M 12.555 12.555 
L 55.829935 55.829935 
M 55.829935 45.011201 
L 55.829935 66.648669 
M 66.648669 55.829935 
L 45.011201 55.829935 
M 55.829935 55.829935 
L 99.10487 99.10487 
" clip-path="url(#p2b6e712f2f)" style="fill: none; stroke: #000000; stroke-width: 2; stroke-linecap: round"/>
   </g>
   <g id="line2d_2">
    <path d="M 185.65474 185.65474 
L 164.017273 164.017273 
" clip-path="url(#p2b6e712f2f)" style="fill: none; stroke: #000000; stroke-width: 2; stroke-linecap: round"/>
   </g>
   <g id="line2d_3">
    <path d="M 99.10487 99.10487 
L 120.742338 120.742338 
" clip-path="url(#p2b6e712f2f)" style="fill: none; stroke: #000000; stroke-width: 2; stroke-linecap: round"/>
   </g>
   <g id="line2d_4">
    <path d="M 152.47729 175.557255 
L 175.557255 152.47729 
" clip-path="url(#p2b6e712f2f)" style="fill: none; stroke: #000000; stroke-width: 2; stroke-linecap: round"/>
   </g>
   <g id="line2d_5">
    <path d="M 109.202355 132.28232 
L 132.28232 109.202355 
" clip-path="url(#p2b6e712f2f)" style="fill: none; stroke: #000000; stroke-width: 2; stroke-linecap: round"/>
   </g>
   <g id="line2d_6">
    <path d="M 164.017273 164.017273 
L 144.327177 144.327177 
M 138.91781 149.736544 
L 149.736544 138.91781 
M 135.023066 145.8418 
L 145.8418 135.023066 
M 140.432433 140.432433 
L 120.742338 120.742338 
" clip-path="url(#p2b6e712f2f)" style="fill: none; stroke: #000000; stroke-width: 2; stroke-linecap: round"/>
   </g>
   <g id="line2d_7">
    <path d="M 152.47729 175.557255 
L 130.839822 153.919788 
M 130.839822 164.738521 
L 130.839822 143.101054 
M 120.021089 153.919788 
L 141.658556 153.919788 
M 130.839822 153.919788 
L 109.202355 132.28232 
" clip-path="url(#p2b6e712f2f)" style="fill: none; stroke: #000000; stroke-width: 2; stroke-linecap: round"/>
   </g>
   <g id="line2d_8">
    <path d="M 175.557255 152.47729 
L 164.738521 141.658556 
M 143.101054 120.021089 
L 132.28232 109.202355 
" clip-path="url(#p2b6e712f2f)" style="fill: none; stroke: #000000; stroke-width: 2; stroke-linecap: round"/>
   </g>
   <g id="patch_6">
    <path d="M 12.555 14.85 
C 13.163641 14.85 13.747436 14.608184 14.17781 14.17781 
C 14.608184 13.747436 14.85 13.163641 14.85 12.555 
C 14.85 11.946359 14.608184 11.362564 14.17781 10.93219 
C 13.747436 10.501816 13.163641 10.26 12.555 10.26 
C 11.946359 10.26 11.362564 10.501816 10.93219 10.93219 
C 10.501816 11.362564 10.26 11.946359 10.26 12.555 
C 10.26 13.163641 10.501816 13.747436 10.93219 14.17781 
C 11.362564 14.608184 11.946359 14.85 12.555 14.85 
z
" clip-path="url(#p2b6e712f2f)" style="stroke: #000000; stroke-width: 2; stroke-linejoin: miter"/>
   </g>
   <g id="patch_7">
    <path d="M 99.10487 101.39987 
C 99.713511 101.39987 100.297306 101.158054 100.72768 100.72768 
C 101.158054 100.297306 101.39987 99.713511 101.39987 99.10487 
C 101.39987 98.496229 101.158054 97.912434 100.72768 97.48206 
C 100.297306 97.051686 99.713511 96.80987 99.10487 96.80987 
C 98.496229 96.80987 97.912434 97.051686 97.48206 97.48206 
C 97.051686 97.912434 96.80987 98.496229 96.80987 99.10487 
C 96.80987 99.713511 97.051686 100.297306 97.48206 100.72768 
C 97.912434 101.158054 98.496229 101.39987 99.10487 101.39987 
z
" clip-path="url(#p2b6e712f2f)" style="stroke: #000000; stroke-width: 2; stroke-linejoin: miter"/>
   </g>
   <g id="patch_8">
    <path d="M 185.65474 187.94974 
C 186.263381 187.94974 186.847176 187.707924 187.27755 187.27755 
C 187.707924 186.847176 187.94974 186.263381 187.94974 185.65474 
C 187.94974 185.046099 187.707924 184.462304 187.27755 184.03193 
C 186.847176 183.601556 186.263381 183.35974 185.65474 183.35974 
C 185.046099 183.35974 184.462304 183.601556 184.03193 184.03193 
C 183.601556 184.462304 183.35974 185.046099 183.35974 185.65474 
C 183.35974 186.263381 183.601556 186.847176 184.03193 187.27755 
C 184.462304 187.707924 185.046099 187.94974 185.65474 187.94974 
z
" clip-path="url(#p2b6e712f2f)" style="stroke: #000000; stroke-width: 2; stroke-linejoin: miter"/>
   </g>
  </g>
 </g>
 <defs>
  <clipPath id="p2b6e712f2f">
   <rect x="7.2" y="7.2" width="183.80974" height="183.80974"/>
  </clipPath>
 </defs>
</svg>
