<?xml version="1.0" encoding="utf-8" standalone="no"?>
<!DOCTYPE svg PUBLIC "-//W3C//DTD SVG 1.1//EN"
  "http://www.w3.org/Graphics/SVG/1.1/DTD/svg11.dtd">
<svg xmlns:xlink="http://www.w3.org/1999/xlink" width="147.51pt" height="145.136509pt" viewBox="0 0 147.51 145.136509" xmlns="http://www.w3.org/2000/svg" version="1.1">
 <metadata>
  <rdf:RDF xmlns:dc="http://purl.org/dc/elements/1.1/" xmlns:cc="http://creativecommons.org/ns#" xmlns:rdf="http://www.w3.org/1999/02/22-rdf-syntax-ns#">
   <cc:Work>
    <dc:type rdf:resource="http://purl.org/dc/dcmitype/StillImage"/>
    <dc:date>2023-06-14T17:23:23.792672</dc:date>
    <dc:format>image/svg+xml</dc:format>
    <dc:creator>
     <cc:Agent>
      <dc:title>Matplotlib v3.5.2, https://matplotlib.org/</dc:title>
     </cc:Agent>
    </dc:creator>
   </cc:Work>
  </rdf:RDF>
 </metadata>
 <defs>
  <style type="text/css">*{stroke-linejoin: round; stroke-linecap: butt}</style>
 </defs>
 <g id="figure_1">
  <g id="patch_1">
   <path d="M 0 145.136509 
L 147.51 145.136509 
L 147.51 0 
L 0 0 
L 0 145.136509 
z
" style="fill: none"/>
  </g>
  <g id="axes_1">
   <g id="patch_2">
    <path d="M 81.405 10.26 
C 81.405 11.274064 81.808265 12.247632 82.525317 12.964683 
C 83.242368 13.681735 84.215936 14.085 85.23 14.085 
C 86.244064 14.085 87.217632 13.681735 87.934683 12.964683 
C 88.651735 12.247632 89.055 11.274064 89.055 10.26 
" clip-path="url(#pa88761d52a)" style="fill: none; stroke: #000000; stroke-width: 2; stroke-linejoin: miter"/>
   </g>
   <g id="patch_3">
    <path d="M 73.755 10.26 
C 73.755 11.274064 74.158265 12.247632 74.875317 12.964683 
C 75.592368 13.681735 76.565936 14.085 77.58 14.085 
C 78.594064 14.085 79.567632 13.681735 80.284683 12.964683 
C 81.001735 12.247632 81.405 11.274064 81.405 10.26 
" clip-path="url(#pa88761d52a)" style="fill: none; stroke: #000000; stroke-width: 2; stroke-linejoin: miter"/>
   </g>
   <g id="patch_4">
    <path d="M 66.105 10.26 
C 66.105 11.274064 66.508265 12.247632 67.225317 12.964683 
C 67.942368 13.681735 68.915936 14.085 69.93 14.085 
C 70.944064 14.085 71.917632 13.681735 72.634683 12.964683 
C 73.351735 12.247632 73.755 11.274064 73.755 10.26 
" clip-path="url(#pa88761d52a)" style="fill: none; stroke: #000000; stroke-width: 2; stroke-linejoin: miter"/>
   </g>
   <g id="patch_5">
    <path d="M 58.455 10.26 
C 58.455 11.274064 58.858265 12.247632 59.575317 12.964683 
C 60.292368 13.681735 61.265936 14.085 62.28 14.085 
C 63.294064 14.085 64.267632 13.681735 64.984683 12.964683 
C 65.701735 12.247632 66.105 11.274064 66.105 10.26 
" clip-path="url(#pa88761d52a)" style="fill: none; stroke: #000000; stroke-width: 2; stroke-linejoin: miter"/>
   </g>
   <g id="line2d_1">
    <path d="M 73.755 132.581509 
L 104.355 79.580755 
M 93.904906 82.380849 
L 114.805094 76.78066 
M 101.554906 69.13066 
L 107.155094 90.030849 
M 104.355 79.580755 
L 134.955 26.58 
" clip-path="url(#pa88761d52a)" style="fill: none; stroke: #000000; stroke-width: 2; stroke-linecap: round"/>
   </g>
   <g id="line2d_2">
    <path d="M 73.755 132.581509 
L 58.455 106.081132 
" clip-path="url(#pa88761d52a)" style="fill: none; stroke: #000000; stroke-width: 2; stroke-linecap: round"/>
   </g>
   <g id="line2d_3">
    <path d="M 12.555 26.58 
L 27.855 53.080377 
" clip-path="url(#pa88761d52a)" style="fill: none; stroke: #000000; stroke-width: 2; stroke-linecap: round"/>
   </g>
   <g id="line2d_4">
    <path d="M 47.854849 112.201132 
L 69.055151 99.961132 
" clip-path="url(#pa88761d52a)" style="fill: none; stroke: #000000; stroke-width: 2; stroke-linecap: round"/>
   </g>
   <g id="line2d_5">
    <path d="M 17.254849 59.200377 
L 38.455151 46.960377 
" clip-path="url(#pa88761d52a)" style="fill: none; stroke: #000000; stroke-width: 2; stroke-linecap: round"/>
   </g>
   <g id="line2d_6">
    <path d="M 47.854849 112.201132 
L 33.931849 88.085789 
M 27.306755 91.910789 
L 40.556943 84.260789 
M 24.552755 87.140721 
L 37.802943 79.490721 
M 31.177849 83.315721 
L 17.254849 59.200377 
" clip-path="url(#pa88761d52a)" style="fill: none; stroke: #000000; stroke-width: 2; stroke-linecap: round"/>
   </g>
   <g id="line2d_7">
    <path d="M 69.055151 99.961132 
L 53.755151 73.460755 
M 50.955057 83.910849 
L 56.555245 63.01066 
M 43.305057 70.66066 
L 64.205245 76.260849 
M 53.755151 73.460755 
L 38.455151 46.960377 
" clip-path="url(#pa88761d52a)" style="fill: none; stroke: #000000; stroke-width: 2; stroke-linecap: round"/>
   </g>
   <g id="line2d_8">
    <path d="M 134.955 26.58 
L 104.355 26.58 
" clip-path="url(#pa88761d52a)" style="fill: none; stroke: #000000; stroke-width: 2; stroke-linecap: round"/>
   </g>
   <g id="line2d_9">
    <path d="M 12.555 26.58 
L 43.155 26.58 
" clip-path="url(#pa88761d52a)" style="fill: none; stroke: #000000; stroke-width: 2; stroke-linecap: round"/>
   </g>
   <g id="line2d_10">
    <path d="M 104.355 42.9 
L 104.355 10.26 
" clip-path="url(#pa88761d52a)" style="fill: none; stroke: #000000; stroke-width: 2; stroke-linecap: round"/>
   </g>
   <g id="line2d_11">
    <path d="M 43.155 42.9 
L 43.155 10.26 
" clip-path="url(#pa88761d52a)" style="fill: none; stroke: #000000; stroke-width: 2; stroke-linecap: round"/>
   </g>
   <g id="line2d_12">
    <path d="M 104.355 26.58 
L 76.509 26.58 
M 76.509 34.23 
L 76.509 18.93 
M 71.001 34.23 
L 71.001 18.93 
M 71.001 26.58 
L 43.155 26.58 
" clip-path="url(#pa88761d52a)" style="fill: none; stroke: #000000; stroke-width: 2; stroke-linecap: round"/>
   </g>
   <g id="line2d_13">
    <path d="M 104.355 42.9 
L 73.755 42.9 
M 81.405 50.55 
L 66.105 35.25 
M 66.105 50.55 
L 81.405 35.25 
M 73.755 42.9 
L 43.155 42.9 
" clip-path="url(#pa88761d52a)" style="fill: none; stroke: #000000; stroke-width: 2; stroke-linecap: round"/>
   </g>
   <g id="line2d_14">
    <path d="M 104.355 10.26 
L 89.055 10.26 
M 58.455 10.26 
L 43.155 10.26 
" clip-path="url(#pa88761d52a)" style="fill: none; stroke: #000000; stroke-width: 2; stroke-linecap: round"/>
   </g>
   <g id="patch_6">
    <path d="M 73.755 134.876509 
C 74.363641 134.876509 74.947436 134.634694 75.37781 134.204319 
C 75.808184 133.773945 76.05 133.190151 76.05 132.581509 
C 76.05 131.972868 75.808184 131.389074 75.37781 130.958699 
C 74.947436 130.528325 74.363641 130.286509 73.755 130.286509 
C 73.146359 130.286509 72.562564 130.528325 72.13219 130.958699 
C 71.701816 131.389074 71.46 131.972868 71.46 132.581509 
C 71.46 133.190151 71.701816 133.773945 72.13219 134.204319 
C 72.562564 134.634694 73.146359 134.876509 73.755 134.876509 
z
" clip-path="url(#pa88761d52a)" style="stroke: #000000; stroke-width: 2; stroke-linejoin: miter"/>
   </g>
   <g id="patch_7">
    <path d="M 134.955 28.875 
C 135.563641 28.875 136.147436 28.633184 136.57781 28.20281 
C 137.008184 27.772436 137.25 27.188641 137.25 26.58 
C 137.25 25.971359 137.008184 25.387564 136.57781 24.95719 
C 136.147436 24.526816 135.563641 24.285 134.955 24.285 
C 134.346359 24.285 133.762564 24.526816 133.33219 24.95719 
C 132.901816 25.387564 132.66 25.971359 132.66 26.58 
C 132.66 27.188641 132.901816 27.772436 133.33219 28.20281 
C 133.762564 28.633184 134.346359 28.875 134.955 28.875 
z
" clip-path="url(#pa88761d52a)" style="stroke: #000000; stroke-width: 2; stroke-linejoin: miter"/>
   </g>
   <g id="patch_8">
    <path d="M 12.555 28.875 
C 13.163641 28.875 13.747436 28.633184 14.17781 28.20281 
C 14.608184 27.772436 14.85 27.188641 14.85 26.58 
C 14.85 25.971359 14.608184 25.387564 14.17781 24.95719 
C 13.747436 24.526816 13.163641 24.285 12.555 24.285 
C 11.946359 24.285 11.362564 24.526816 10.93219 24.95719 
C 10.501816 25.387564 10.26 25.971359 10.26 26.58 
C 10.26 27.188641 10.501816 27.772436 10.93219 28.20281 
C 11.362564 28.633184 11.946359 28.875 12.555 28.875 
z
" clip-path="url(#pa88761d52a)" style="stroke: #000000; stroke-width: 2; stroke-linejoin: miter"/>
   </g>
  </g>
 </g>
 <defs>
  <clipPath id="pa88761d52a">
   <rect x="7.2" y="7.2" width="133.11" height="130.736509"/>
  </clipPath>
 </defs>
</svg>
