<?xml version="1.0" encoding="utf-8" standalone="no"?>
<!DOCTYPE svg PUBLIC "-//W3C//DTD SVG 1.1//EN"
  "http://www.w3.org/Graphics/SVG/1.1/DTD/svg11.dtd">
<svg xmlns:xlink="http://www.w3.org/1999/xlink" width="147.51pt" height="148.706509pt" viewBox="0 0 147.51 148.706509" xmlns="http://www.w3.org/2000/svg" version="1.1">
 <metadata>
  <rdf:RDF xmlns:dc="http://purl.org/dc/elements/1.1/" xmlns:cc="http://creativecommons.org/ns#" xmlns:rdf="http://www.w3.org/1999/02/22-rdf-syntax-ns#">
   <cc:Work>
    <dc:type rdf:resource="http://purl.org/dc/dcmitype/StillImage"/>
    <dc:date>2023-06-14T17:23:23.531593</dc:date>
    <dc:format>image/svg+xml</dc:format>
    <dc:creator>
     <cc:Agent>
      <dc:title>Matplotlib v3.5.2, https://matplotlib.org/</dc:title>
     </cc:Agent>
    </dc:creator>
   </cc:Work>
  </rdf:RDF>
 </metadata>
 <defs>
  <style type="text/css">*{stroke-linejoin: round; stroke-linecap: butt}</style>
 </defs>
 <g id="figure_1">
  <g id="patch_1">
   <path d="M 0 148.706509 
L 147.51 148.706509 
L 147.51 0 
L 0 0 
L 0 148.706509 
z
" style="fill: none"/>
  </g>
  <g id="axes_1">
   <g id="patch_2">
    <path d="M 46.98 89.775849 
C 46.101795 90.282881 45.460293 91.118903 45.197834 92.098413 
C 44.935375 93.077924 45.072921 94.122691 45.579953 95.000896 
C 46.086985 95.879101 46.923007 96.520603 47.902517 96.783063 
C 48.882028 97.045522 49.926795 96.907975 50.805 96.400943 
" clip-path="url(#p5166c6aedd)" style="fill: none; stroke: #000000; stroke-width: 2; stroke-linejoin: miter"/>
   </g>
   <g id="patch_3">
    <path d="M 43.155 83.150755 
C 42.276795 83.657787 41.635293 84.493808 41.372834 85.473319 
C 41.110375 86.45283 41.247921 87.497597 41.754953 88.375802 
C 42.261985 89.254007 43.098007 89.895509 44.077517 90.157968 
C 45.057028 90.420427 46.101795 90.282881 46.98 89.775849 
" clip-path="url(#p5166c6aedd)" style="fill: none; stroke: #000000; stroke-width: 2; stroke-linejoin: miter"/>
   </g>
   <g id="patch_4">
    <path d="M 39.33 76.52566 
C 38.451795 77.032692 37.810293 77.868714 37.547834 78.848225 
C 37.285375 79.827735 37.422921 80.872502 37.929953 81.750708 
C 38.436985 82.628913 39.273007 83.270415 40.252517 83.532874 
C 41.232028 83.795333 42.276795 83.657787 43.155 83.150755 
" clip-path="url(#p5166c6aedd)" style="fill: none; stroke: #000000; stroke-width: 2; stroke-linejoin: miter"/>
   </g>
   <g id="patch_5">
    <path d="M 35.505 69.900566 
C 34.626795 70.407598 33.985293 71.24362 33.722834 72.22313 
C 33.460375 73.202641 33.597921 74.247408 34.104953 75.125613 
C 34.611985 76.003818 35.448007 76.64532 36.427517 76.907779 
C 37.407028 77.170239 38.451795 77.032692 39.33 76.52566 
" clip-path="url(#p5166c6aedd)" style="fill: none; stroke: #000000; stroke-width: 2; stroke-linejoin: miter"/>
   </g>
   <g id="line2d_1">
    <path d="M 73.755 136.151509 
L 104.355 83.150755 
M 93.904906 85.950849 
L 114.805094 80.35066 
M 101.554906 72.70066 
L 107.155094 93.600849 
M 104.355 83.150755 
L 134.955 30.15 
" clip-path="url(#p5166c6aedd)" style="fill: none; stroke: #000000; stroke-width: 2; stroke-linecap: round"/>
   </g>
   <g id="line2d_2">
    <path d="M 73.755 136.151509 
L 50.805 96.400943 
M 35.505 69.900566 
L 12.555 30.15 
" clip-path="url(#p5166c6aedd)" style="fill: none; stroke: #000000; stroke-width: 2; stroke-linecap: round"/>
   </g>
   <g id="line2d_3">
    <path d="M 134.955 30.15 
L 104.355 30.15 
" clip-path="url(#p5166c6aedd)" style="fill: none; stroke: #000000; stroke-width: 2; stroke-linecap: round"/>
   </g>
   <g id="line2d_4">
    <path d="M 12.555 30.15 
L 43.155 30.15 
" clip-path="url(#p5166c6aedd)" style="fill: none; stroke: #000000; stroke-width: 2; stroke-linecap: round"/>
   </g>
   <g id="line2d_5">
    <path d="M 104.355 42.39 
L 104.355 17.91 
" clip-path="url(#p5166c6aedd)" style="fill: none; stroke: #000000; stroke-width: 2; stroke-linecap: round"/>
   </g>
   <g id="line2d_6">
    <path d="M 43.155 42.39 
L 43.155 17.91 
" clip-path="url(#p5166c6aedd)" style="fill: none; stroke: #000000; stroke-width: 2; stroke-linecap: round"/>
   </g>
   <g id="line2d_7">
    <path d="M 104.355 42.39 
L 76.509 42.39 
M 76.509 50.04 
L 76.509 34.74 
M 71.001 50.04 
L 71.001 34.74 
M 71.001 42.39 
L 43.155 42.39 
" clip-path="url(#p5166c6aedd)" style="fill: none; stroke: #000000; stroke-width: 2; stroke-linecap: round"/>
   </g>
   <g id="line2d_8">
    <path d="M 104.355 17.91 
L 73.755 17.91 
M 81.405 25.56 
L 66.105 10.26 
M 66.105 25.56 
L 81.405 10.26 
M 73.755 17.91 
L 43.155 17.91 
" clip-path="url(#p5166c6aedd)" style="fill: none; stroke: #000000; stroke-width: 2; stroke-linecap: round"/>
   </g>
   <g id="patch_6">
    <path d="M 73.755 138.446509 
C 74.363641 138.446509 74.947436 138.204694 75.37781 137.774319 
C 75.808184 137.343945 76.05 136.760151 76.05 136.151509 
C 76.05 135.542868 75.808184 134.959074 75.37781 134.528699 
C 74.947436 134.098325 74.363641 133.856509 73.755 133.856509 
C 73.146359 133.856509 72.562564 134.098325 72.13219 134.528699 
C 71.701816 134.959074 71.46 135.542868 71.46 136.151509 
C 71.46 136.760151 71.701816 137.343945 72.13219 137.774319 
C 72.562564 138.204694 73.146359 138.446509 73.755 138.446509 
z
" clip-path="url(#p5166c6aedd)" style="stroke: #000000; stroke-width: 2; stroke-linejoin: miter"/>
   </g>
   <g id="patch_7">
    <path d="M 134.955 32.445 
C 135.563641 32.445 136.147436 32.203184 136.57781 31.77281 
C 137.008184 31.342436 137.25 30.758641 137.25 30.15 
C 137.25 29.541359 137.008184 28.957564 136.57781 28.52719 
C 136.147436 28.096816 135.563641 27.855 134.955 27.855 
C 134.346359 27.855 133.762564 28.096816 133.33219 28.52719 
C 132.901816 28.957564 132.66 29.541359 132.66 30.15 
C 132.66 30.758641 132.901816 31.342436 133.33219 31.77281 
C 133.762564 32.203184 134.346359 32.445 134.955 32.445 
z
" clip-path="url(#p5166c6aedd)" style="stroke: #000000; stroke-width: 2; stroke-linejoin: miter"/>
   </g>
   <g id="patch_8">
    <path d="M 12.555 32.445 
C 13.163641 32.445 13.747436 32.203184 14.17781 31.77281 
C 14.608184 31.342436 14.85 30.758641 14.85 30.15 
C 14.85 29.541359 14.608184 28.957564 14.17781 28.52719 
C 13.747436 28.096816 13.163641 27.855 12.555 27.855 
C 11.946359 27.855 11.362564 28.096816 10.93219 28.52719 
C 10.501816 28.957564 10.26 29.541359 10.26 30.15 
C 10.26 30.758641 10.501816 31.342436 10.93219 31.77281 
C 11.362564 32.203184 11.946359 32.445 12.555 32.445 
z
" clip-path="url(#p5166c6aedd)" style="stroke: #000000; stroke-width: 2; stroke-linejoin: miter"/>
   </g>
  </g>
 </g>
 <defs>
  <clipPath id="p5166c6aedd">
   <rect x="7.2" y="7.2" width="133.11" height="134.306509"/>
  </clipPath>
 </defs>
</svg>
