<?xml version="1.0" encoding="utf-8" standalone="no"?>
<!DOCTYPE svg PUBLIC "-//W3C//DTD SVG 1.1//EN"
  "http://www.w3.org/Graphics/SVG/1.1/DTD/svg11.dtd">
<svg xmlns:xlink="http://www.w3.org/1999/xlink" width="198.20974pt" height="198.20974pt" viewBox="0 0 198.20974 198.20974" xmlns="http://www.w3.org/2000/svg" version="1.1">
 <metadata>
  <rdf:RDF xmlns:dc="http://purl.org/dc/elements/1.1/" xmlns:cc="http://creativecommons.org/ns#" xmlns:rdf="http://www.w3.org/1999/02/22-rdf-syntax-ns#">
   <cc:Work>
    <dc:type rdf:resource="http://purl.org/dc/dcmitype/StillImage"/>
    <dc:date>2023-06-14T17:23:22.121228</dc:date>
    <dc:format>image/svg+xml</dc:format>
    <dc:creator>
     <cc:Agent>
      <dc:title>Matplotlib v3.5.2, https://matplotlib.org/</dc:title>
     </cc:Agent>
    </dc:creator>
   </cc:Work>
  </rdf:RDF>
 </metadata>
 <defs>
  <style type="text/css">*{stroke-linejoin: round; stroke-linecap: butt}</style>
 </defs>
 <g id="figure_1">
  <g id="patch_1">
   <path d="M 0 198.20974 
L 198.20974 198.20974 
L 198.20974 0 
L 0 0 
L 0 198.20974 
z
" style="fill: none"/>
  </g>
  <g id="axes_1">
   <g id="patch_2">
    <path d="M 147.789172 147.789172 
C 147.07212 148.506223 146.668855 149.479791 146.668855 150.493855 
C 146.668855 151.507919 147.07212 152.481487 147.789172 153.198539 
C 148.506223 153.91559 149.479791 154.318855 150.493855 154.318855 
C 151.507919 154.318855 152.481487 153.91559 153.198539 153.198539 
" clip-path="url(#p23b874ec6e)" style="fill: none; stroke: #000000; stroke-width: 2; stroke-linejoin: miter"/>
   </g>
   <g id="patch_3">
    <path d="M 142.379805 142.379805 
C 141.662753 143.096857 141.259488 144.070424 141.259488 145.084488 
C 141.259488 146.098552 141.662753 147.07212 142.379805 147.789172 
C 143.096857 148.506223 144.070424 148.909488 145.084488 148.909488 
C 146.098552 148.909488 147.07212 148.506223 147.789172 147.789172 
" clip-path="url(#p23b874ec6e)" style="fill: none; stroke: #000000; stroke-width: 2; stroke-linejoin: miter"/>
   </g>
   <g id="patch_4">
    <path d="M 136.970438 136.970438 
C 136.253387 137.68749 135.850122 138.661058 135.850122 139.675122 
C 135.850122 140.689186 136.253387 141.662753 136.970438 142.379805 
C 137.68749 143.096857 138.661058 143.500122 139.675122 143.500122 
C 140.689186 143.500122 141.662753 143.096857 142.379805 142.379805 
" clip-path="url(#p23b874ec6e)" style="fill: none; stroke: #000000; stroke-width: 2; stroke-linejoin: miter"/>
   </g>
   <g id="patch_5">
    <path d="M 131.561071 131.561071 
C 130.84402 132.278123 130.440755 133.251691 130.440755 134.265755 
C 130.440755 135.279819 130.84402 136.253387 131.561071 136.970438 
C 132.278123 137.68749 133.251691 138.090755 134.265755 138.090755 
C 135.279819 138.090755 136.253387 137.68749 136.970438 136.970438 
" clip-path="url(#p23b874ec6e)" style="fill: none; stroke: #000000; stroke-width: 2; stroke-linejoin: miter"/>
   </g>
   <g id="line2d_1">
    <path d="M 12.555 12.555 
L 55.829935 55.829935 
M 55.829935 45.011201 
L 55.829935 66.648669 
M 66.648669 55.829935 
L 45.011201 55.829935 
M 55.829935 55.829935 
L 99.10487 99.10487 
" clip-path="url(#p23b874ec6e)" style="fill: none; stroke: #000000; stroke-width: 2; stroke-linecap: round"/>
   </g>
   <g id="line2d_2">
    <path d="M 185.65474 185.65474 
L 153.198539 153.198539 
M 131.561071 131.561071 
L 99.10487 99.10487 
" clip-path="url(#p23b874ec6e)" style="fill: none; stroke: #000000; stroke-width: 2; stroke-linecap: round"/>
   </g>
   <g id="patch_6">
    <path d="M 12.555 14.85 
C 13.163641 14.85 13.747436 14.608184 14.17781 14.17781 
C 14.608184 13.747436 14.85 13.163641 14.85 12.555 
C 14.85 11.946359 14.608184 11.362564 14.17781 10.93219 
C 13.747436 10.501816 13.163641 10.26 12.555 10.26 
C 11.946359 10.26 11.362564 10.501816 10.93219 10.93219 
C 10.501816 11.362564 10.26 11.946359 10.26 12.555 
C 10.26 13.163641 10.501816 13.747436 10.93219 14.17781 
C 11.362564 14.608184 11.946359 14.85 12.555 14.85 
z
" clip-path="url(#p23b874ec6e)" style="stroke: #000000; stroke-width: 2; stroke-linejoin: miter"/>
   </g>
   <g id="patch_7">
    <path d="M 99.10487 101.39987 
C 99.713511 101.39987 100.297306 101.158054 100.72768 100.72768 
C 101.158054 100.297306 101.39987 99.713511 101.39987 99.10487 
C 101.39987 98.496229 101.158054 97.912434 100.72768 97.48206 
C 100.297306 97.051686 99.713511 96.80987 99.10487 96.80987 
C 98.496229 96.80987 97.912434 97.051686 97.48206 97.48206 
C 97.051686 97.912434 96.80987 98.496229 96.80987 99.10487 
C 96.80987 99.713511 97.051686 100.297306 97.48206 100.72768 
C 97.912434 101.158054 98.496229 101.39987 99.10487 101.39987 
z
" clip-path="url(#p23b874ec6e)" style="stroke: #000000; stroke-width: 2; stroke-linejoin: miter"/>
   </g>
   <g id="patch_8">
    <path d="M 185.65474 187.94974 
C 186.263381 187.94974 186.847176 187.707924 187.27755 187.27755 
C 187.707924 186.847176 187.94974 186.263381 187.94974 185.65474 
C 187.94974 185.046099 187.707924 184.462304 187.27755 184.03193 
C 186.847176 183.601556 186.263381 183.35974 185.65474 183.35974 
C 185.046099 183.35974 184.462304 183.601556 184.03193 184.03193 
C 183.601556 184.462304 183.35974 185.046099 183.35974 185.65474 
C 183.35974 186.263381 183.601556 186.847176 184.03193 187.27755 
C 184.462304 187.707924 185.046099 187.94974 185.65474 187.94974 
z
" clip-path="url(#p23b874ec6e)" style="stroke: #000000; stroke-width: 2; stroke-linejoin: miter"/>
   </g>
  </g>
 </g>
 <defs>
  <clipPath id="p23b874ec6e">
   <rect x="7.2" y="7.2" width="183.80974" height="183.80974"/>
  </clipPath>
 </defs>
</svg>
