<?xml version="1.0" encoding="utf-8" standalone="no"?>
<!DOCTYPE svg PUBLIC "-//W3C//DTD SVG 1.1//EN"
  "http://www.w3.org/Graphics/SVG/1.1/DTD/svg11.dtd">
<svg xmlns:xlink="http://www.w3.org/1999/xlink" width="198.20974pt" height="198.20974pt" viewBox="0 0 198.20974 198.20974" xmlns="http://www.w3.org/2000/svg" version="1.1">
 <metadata>
  <rdf:RDF xmlns:dc="http://purl.org/dc/elements/1.1/" xmlns:cc="http://creativecommons.org/ns#" xmlns:rdf="http://www.w3.org/1999/02/22-rdf-syntax-ns#">
   <cc:Work>
    <dc:type rdf:resource="http://purl.org/dc/dcmitype/StillImage"/>
    <dc:date>2023-06-14T17:23:22.512031</dc:date>
    <dc:format>image/svg+xml</dc:format>
    <dc:creator>
     <cc:Agent>
      <dc:title>Matplotlib v3.5.2, https://matplotlib.org/</dc:title>
     </cc:Agent>
    </dc:creator>
   </cc:Work>
  </rdf:RDF>
 </metadata>
 <defs>
  <style type="text/css">*{stroke-linejoin: round; stroke-linecap: butt}</style>
 </defs>
 <g id="figure_1">
  <g id="patch_1">
   <path d="M 0 198.20974 
L 198.20974 198.20974 
L 198.20974 0 
L 0 0 
L 0 198.20974 
z
" style="fill: none"/>
  </g>
  <g id="axes_1">
   <g id="patch_2">
    <path d="M 41.765581 59.075555 
C 42.482633 58.358504 42.885898 57.384936 42.885898 56.370872 
C 42.885898 55.356808 42.482633 54.38324 41.765581 53.666188 
C 41.04853 52.949137 40.074962 52.545872 39.060898 52.545872 
C 38.046834 52.545872 37.073266 52.949137 36.356214 53.666188 
" clip-path="url(#p53f7cc6f57)" style="fill: none; stroke: #000000; stroke-width: 2; stroke-linejoin: miter"/>
   </g>
   <g id="patch_3">
    <path d="M 47.174948 64.484922 
C 47.892 63.76787 48.295265 62.794303 48.295265 61.780239 
C 48.295265 60.766175 47.892 59.792607 47.174948 59.075555 
C 46.457896 58.358504 45.484329 57.955239 44.470265 57.955239 
C 43.456201 57.955239 42.482633 58.358504 41.765581 59.075555 
" clip-path="url(#p53f7cc6f57)" style="fill: none; stroke: #000000; stroke-width: 2; stroke-linejoin: miter"/>
   </g>
   <g id="patch_4">
    <path d="M 52.584315 69.894289 
C 53.301366 69.177237 53.704631 68.203669 53.704631 67.189605 
C 53.704631 66.175541 53.301366 65.201974 52.584315 64.484922 
C 51.867263 63.76787 50.893695 63.364605 49.879631 63.364605 
C 48.865567 63.364605 47.892 63.76787 47.174948 64.484922 
" clip-path="url(#p53f7cc6f57)" style="fill: none; stroke: #000000; stroke-width: 2; stroke-linejoin: miter"/>
   </g>
   <g id="patch_5">
    <path d="M 57.993682 75.303656 
C 58.710733 74.586604 59.113998 73.613036 59.113998 72.598972 
C 59.113998 71.584908 58.710733 70.61134 57.993682 69.894289 
C 57.27663 69.177237 56.303062 68.773972 55.288998 68.773972 
C 54.274934 68.773972 53.301366 69.177237 52.584315 69.894289 
" clip-path="url(#p53f7cc6f57)" style="fill: none; stroke: #000000; stroke-width: 2; stroke-linejoin: miter"/>
   </g>
   <g id="patch_6">
    <path d="M 156.444159 139.134185 
C 155.727107 139.851236 155.323842 140.824804 155.323842 141.838868 
C 155.323842 142.852932 155.727107 143.8265 156.444159 144.543552 
C 157.16121 145.260603 158.134778 145.663868 159.148842 145.663868 
C 160.162906 145.663868 161.136474 145.260603 161.853526 144.543552 
" clip-path="url(#p53f7cc6f57)" style="fill: none; stroke: #000000; stroke-width: 2; stroke-linejoin: miter"/>
   </g>
   <g id="patch_7">
    <path d="M 151.034792 133.724818 
C 150.31774 134.44187 149.914475 135.415437 149.914475 136.429501 
C 149.914475 137.443565 150.31774 138.417133 151.034792 139.134185 
C 151.751844 139.851236 152.725411 140.254501 153.739475 140.254501 
C 154.753539 140.254501 155.727107 139.851236 156.444159 139.134185 
" clip-path="url(#p53f7cc6f57)" style="fill: none; stroke: #000000; stroke-width: 2; stroke-linejoin: miter"/>
   </g>
   <g id="patch_8">
    <path d="M 145.625425 128.315451 
C 144.908374 129.032503 144.505109 130.006071 144.505109 131.020135 
C 144.505109 132.034199 144.908374 133.007766 145.625425 133.724818 
C 146.342477 134.44187 147.316045 134.845135 148.330109 134.845135 
C 149.344173 134.845135 150.31774 134.44187 151.034792 133.724818 
" clip-path="url(#p53f7cc6f57)" style="fill: none; stroke: #000000; stroke-width: 2; stroke-linejoin: miter"/>
   </g>
   <g id="patch_9">
    <path d="M 140.216058 122.906084 
C 139.499007 123.623136 139.095742 124.596704 139.095742 125.610768 
C 139.095742 126.624832 139.499007 127.5984 140.216058 128.315451 
C 140.93311 129.032503 141.906678 129.435768 142.920742 129.435768 
C 143.934806 129.435768 144.908374 129.032503 145.625425 128.315451 
" clip-path="url(#p53f7cc6f57)" style="fill: none; stroke: #000000; stroke-width: 2; stroke-linejoin: miter"/>
   </g>
   <g id="line2d_1">
    <path d="M 12.555 12.555 
L 34.192468 34.192468 
" clip-path="url(#p53f7cc6f57)" style="fill: none; stroke: #000000; stroke-width: 2; stroke-linecap: round"/>
   </g>
   <g id="line2d_2">
    <path d="M 99.10487 99.10487 
L 77.467403 77.467403 
" clip-path="url(#p53f7cc6f57)" style="fill: none; stroke: #000000; stroke-width: 2; stroke-linecap: round"/>
   </g>
   <g id="line2d_3">
    <path d="M 42.847455 25.537481 
L 25.537481 42.847455 
" clip-path="url(#p53f7cc6f57)" style="fill: none; stroke: #000000; stroke-width: 2; stroke-linecap: round"/>
   </g>
   <g id="line2d_4">
    <path d="M 86.12239 68.812416 
L 68.812416 86.12239 
" clip-path="url(#p53f7cc6f57)" style="fill: none; stroke: #000000; stroke-width: 2; stroke-linecap: round"/>
   </g>
   <g id="line2d_5">
    <path d="M 42.847455 25.537481 
L 62.53755 45.227576 
M 67.946917 39.818209 
L 57.128183 50.636943 
M 71.841661 43.712953 
L 61.022927 54.531687 
M 66.432294 49.12232 
L 86.12239 68.812416 
" clip-path="url(#p53f7cc6f57)" style="fill: none; stroke: #000000; stroke-width: 2; stroke-linecap: round"/>
   </g>
   <g id="line2d_6">
    <path d="M 25.537481 42.847455 
L 36.356214 53.666188 
M 57.993682 75.303656 
L 68.812416 86.12239 
" clip-path="url(#p53f7cc6f57)" style="fill: none; stroke: #000000; stroke-width: 2; stroke-linecap: round"/>
   </g>
   <g id="line2d_7">
    <path d="M 185.65474 185.65474 
L 164.017273 164.017273 
" clip-path="url(#p53f7cc6f57)" style="fill: none; stroke: #000000; stroke-width: 2; stroke-linecap: round"/>
   </g>
   <g id="line2d_8">
    <path d="M 99.10487 99.10487 
L 120.742338 120.742338 
" clip-path="url(#p53f7cc6f57)" style="fill: none; stroke: #000000; stroke-width: 2; stroke-linecap: round"/>
   </g>
   <g id="line2d_9">
    <path d="M 155.362286 172.67226 
L 172.67226 155.362286 
" clip-path="url(#p53f7cc6f57)" style="fill: none; stroke: #000000; stroke-width: 2; stroke-linecap: round"/>
   </g>
   <g id="line2d_10">
    <path d="M 112.087351 129.397325 
L 129.397325 112.087351 
" clip-path="url(#p53f7cc6f57)" style="fill: none; stroke: #000000; stroke-width: 2; stroke-linecap: round"/>
   </g>
   <g id="line2d_11">
    <path d="M 155.362286 172.67226 
L 133.724818 151.034792 
M 133.724818 161.853526 
L 133.724818 140.216058 
M 122.906084 151.034792 
L 144.543552 151.034792 
M 133.724818 151.034792 
L 112.087351 129.397325 
" clip-path="url(#p53f7cc6f57)" style="fill: none; stroke: #000000; stroke-width: 2; stroke-linecap: round"/>
   </g>
   <g id="line2d_12">
    <path d="M 172.67226 155.362286 
L 161.853526 144.543552 
M 140.216058 122.906084 
L 129.397325 112.087351 
" clip-path="url(#p53f7cc6f57)" style="fill: none; stroke: #000000; stroke-width: 2; stroke-linecap: round"/>
   </g>
   <g id="patch_10">
    <path d="M 12.555 14.85 
C 13.163641 14.85 13.747436 14.608184 14.17781 14.17781 
C 14.608184 13.747436 14.85 13.163641 14.85 12.555 
C 14.85 11.946359 14.608184 11.362564 14.17781 10.93219 
C 13.747436 10.501816 13.163641 10.26 12.555 10.26 
C 11.946359 10.26 11.362564 10.501816 10.93219 10.93219 
C 10.501816 11.362564 10.26 11.946359 10.26 12.555 
C 10.26 13.163641 10.501816 13.747436 10.93219 14.17781 
C 11.362564 14.608184 11.946359 14.85 12.555 14.85 
z
" clip-path="url(#p53f7cc6f57)" style="stroke: #000000; stroke-width: 2; stroke-linejoin: miter"/>
   </g>
   <g id="patch_11">
    <path d="M 99.10487 101.39987 
C 99.713511 101.39987 100.297306 101.158054 100.72768 100.72768 
C 101.158054 100.297306 101.39987 99.713511 101.39987 99.10487 
C 101.39987 98.496229 101.158054 97.912434 100.72768 97.48206 
C 100.297306 97.051686 99.713511 96.80987 99.10487 96.80987 
C 98.496229 96.80987 97.912434 97.051686 97.48206 97.48206 
C 97.051686 97.912434 96.80987 98.496229 96.80987 99.10487 
C 96.80987 99.713511 97.051686 100.297306 97.48206 100.72768 
C 97.912434 101.158054 98.496229 101.39987 99.10487 101.39987 
z
" clip-path="url(#p53f7cc6f57)" style="stroke: #000000; stroke-width: 2; stroke-linejoin: miter"/>
   </g>
   <g id="patch_12">
    <path d="M 185.65474 187.94974 
C 186.263381 187.94974 186.847176 187.707924 187.27755 187.27755 
C 187.707924 186.847176 187.94974 186.263381 187.94974 185.65474 
C 187.94974 185.046099 187.707924 184.462304 187.27755 184.03193 
C 186.847176 183.601556 186.263381 183.35974 185.65474 183.35974 
C 185.046099 183.35974 184.462304 183.601556 184.03193 184.03193 
C 183.601556 184.462304 183.35974 185.046099 183.35974 185.65474 
C 183.35974 186.263381 183.601556 186.847176 184.03193 187.27755 
C 184.462304 187.707924 185.046099 187.94974 185.65474 187.94974 
z
" clip-path="url(#p53f7cc6f57)" style="stroke: #000000; stroke-width: 2; stroke-linejoin: miter"/>
   </g>
  </g>
 </g>
 <defs>
  <clipPath id="p53f7cc6f57">
   <rect x="7.2" y="7.2" width="183.80974" height="183.80974"/>
  </clipPath>
 </defs>
</svg>
